<?xml version="1.0" standalone="no"?>
<!DOCTYPE svg PUBLIC "-//W3C//DTD SVG 1.1//EN" "http://www.w3.org/Graphics/SVG/1.1/DTD/svg11.dtd" >
<svg xmlns="http://www.w3.org/2000/svg" xmlns:xlink="http://www.w3.org/1999/xlink" version="1.1">
<metadata>
Created by FontForge 20170731 at Thu Sep 23 15:28:16 2021
 By Aleksey,,,
(c) COPYRIGHT H. BERTHOLD AG 1992 Alle Rechte vorbehalten.
</metadata>
<defs>
<font id="NeueHelveticaBQ-Bold" horiz-adv-x="1193" >
  <font-face 
    font-family="Neue Helvetica BQ"
    font-weight="500"
    font-stretch="normal"
    units-per-em="2048"
    panose-1="0 0 0 0 0 0 0 0 0 0"
    ascent="1638"
    descent="-410"
    x-height="1049"
    cap-height="1446"
    bbox="-399 -537 2118 2013"
    underline-thickness="102"
    underline-position="-307"
    unicode-range="U+0020-FB02"
  />
<missing-glyph horiz-adv-x="598" 
 />
    <glyph glyph-name=".notdef" horiz-adv-x="598" 
 />
    <glyph glyph-name=".null" horiz-adv-x="0" 
 />
    <glyph glyph-name="nonmarkingreturn" horiz-adv-x="682" 
 />
    <glyph glyph-name="space" unicode=" " horiz-adv-x="598" 
 />
    <glyph glyph-name="exclam" unicode="!" horiz-adv-x="598" 
d="M494 1446v-385l-80 -621h-146l-78 617v389h304zM498 311v-311h-314v311h314z" />
    <glyph glyph-name="quotedbl" unicode="&#x22;" horiz-adv-x="811" 
d="M647 862h-55l-96 508q-5 44 -2 68q8 36 40 66t93 30q50 0 79 -26t35 -54q5 -21 2 -61zM221 862h-55l-96 508q-6 52 -2 68q6 35 38.5 65.5t92.5 30.5q54 0 83 -27.5t35 -58.5q2 -20 0 -55z" />
    <glyph glyph-name="numbersign" unicode="#" 
d="M1147 440h-279l-63 -440h-205l64 440h-203l-62 -440h-206l57 440h-248v205h277l26 193h-256v202h283l57 408h211l-57 -408h200l62 408h203l-58 -408h242v-202h-270l-27 -193h252v-205zM690 645l29 193h-203l-27 -193h201z" />
    <glyph glyph-name="dollar" unicode="$" horiz-adv-x="1236" 
d="M678 1602v-154q206 0 332 -100q48 -37 80 -91q55 -84 55 -204v-27h-271q0 51 -10 86q-33 115 -180 130q-4 1 -6 1v-391q160 -34 252 -72q260 -101 260 -364q0 -111 -47 -203q-64 -121 -192 -182.5t-273 -59.5v-178h-111v178q-290 0 -428 181q-97 130 -90 301h289v-12
v-16.5t0.5 -19t2 -22t4.5 -23.5t7 -25.5t10.5 -25.5t14.5 -26q29 -47 80 -72q49 -25 110 -25v432q-29 5 -70 14.5t-120.5 38t-130.5 62.5q-156 105 -156 291q1 77 23.5 142t53.5 105t74.5 72t74.5 46.5t65 25.5q86 27 186 33v154h111zM567 877v364q-86 -2 -146.5 -48
t-60.5 -132q0 -78 58 -125q48 -40 149 -59zM678 594v-410q40 0 76 11q22 7 43 19t47.5 34t42.5 60t16 85t-22 88q-23 41 -69 67t-134 46z" />
    <glyph glyph-name="percent" unicode="%" horiz-adv-x="1792" 
d="M385 1436q25 0 52.5 -5t66.5 -18.5t77 -45t66 -77.5q28 -48 50 -134t22 -195q0 -197 -66 -314q-28 -49 -63 -82q-88 -83 -203 -78q-63 0 -115 19q-98 39 -160.5 150.5t-62.5 301.5q0 289 144 408q82 67 192 70zM383 1288q-60 0 -96 -45q-54 -71 -54 -287
q0 -150 35 -229.5t119 -79.5q148 3 148 320q0 195 -52 272q-34 49 -100 49zM1425 1462l-890 -1517h-168l893 1517h165zM1409 924q78 0 144 -33.5t108 -97.5t62 -160t20 -187q0 -194 -68 -313q-29 -50 -73 -90q-83 -68 -193 -68q-109 0 -192 68q-144 119 -144 406
q0 275 131 395q86 80 205 80zM1407 778q-58 0 -96 -47q-54 -69 -54 -285q0 -183 50 -256q37 -53 102 -53q58 0 92 45q58 74 58 275q0 199 -54 272q-34 49 -98 49z" />
    <glyph glyph-name="ampersand" unicode="&#x26;" horiz-adv-x="1449" 
d="M1167 342l293 -342h-350l-123 141q-14 -14 -48.5 -42t-51.5 -38q-62 -41 -195 -81q-55 -11 -114 -11q-107 0 -189 27q-137 42 -221 150t-84 251q0 152 104 273q42 46 105 90q63 41 117 67q-25 25 -60 78q-76 109 -76 221q0 152 119 246q117 92 285 92q87 0 156 -24
q105 -38 170 -124t65 -196q0 -42 -14 -96q-22 -83 -92 -156q-61 -61 -158 -112l196 -228q13 22 17 33q25 57 37 137h250q-3 -46 -15 -94q-24 -98 -67 -176q-15 -30 -56 -86zM655 926q51 34 60 41q57 41 77.5 79t20.5 82q0 23 -6 43q-11 33 -44 62t-91 29q-29 0 -64 -13
q-25 -10 -50.5 -38.5t-25.5 -75.5q0 -19 5.5 -38.5t14 -36t16.5 -29t15.5 -23t8.5 -11.5q31 -39 63 -71zM825 336l-266 301q-30 -13 -76 -43q-121 -77 -121 -191q0 -24 15 -69q20 -45 70 -85t131 -40q105 0 184 67q30 23 63 60z" />
    <glyph glyph-name="quotesingle" unicode="'" horiz-adv-x="425" 
d="M242 862h-56l-96 508q-5 50 0 74q10 42 48.5 66t82.5 24q50 0 78.5 -25t36.5 -53q5 -21 2 -63z" />
    <glyph glyph-name="parenleft" unicode="(" horiz-adv-x="598" 
d="M598 -379h-246q-3 6 -22 39.5t-29.5 53.5t-31 59t-35 73.5t-33 78.5t-34 92.5t-28.5 97.5q-53 198 -53 405q0 190 29 328q13 71 30 131q41 164 123 328q56 110 84 147l242 -2q-77 -150 -111 -240q-116 -310 -116 -688q0 -121 14 -221q31 -268 141 -528q32 -70 76 -154z
" />
    <glyph glyph-name="parenright" unicode=")" horiz-adv-x="598" 
d="M4 1454l242 -2q11 -14 18.5 -26t11.5 -19.5t16 -30.5t21 -41q48 -92 76 -161t55 -166q21 -76 32.5 -125t23.5 -150t12 -215q0 -120 -20 -246q-14 -89 -41.5 -181.5t-50 -152.5t-61 -138t-51 -101t-44.5 -78h-244q30 56 63 127q116 256 154 557q12 90 12 221
q0 272 -63 516q-23 99 -55 179q-42 113 -107 233z" />
    <glyph glyph-name="asterisk" unicode="*" horiz-adv-x="811" 
d="M776 1151l-241 -80l149 -199l-133 -100l-150 209l-143 -209l-137 100l151 199l-237 80l53 156l234 -88l-3 251h170l-6 -251l234 88z" />
    <glyph glyph-name="plus" unicode="+" 
d="M49 727h436v442h224v-442h436v-213h-436v-444h-224v444h-436v213z" />
    <glyph glyph-name="comma" unicode="," horiz-adv-x="512" 
d="M420 322v-254q1 -143 -36 -216t-112 -124q-80 -55 -174 -66v143q36 9 64 27q60 42 78 119q0 2 2 19t2 30h-152v322h328z" />
    <glyph glyph-name="hyphen" unicode="-" horiz-adv-x="768" 
d="M690 684v-258h-612v258h612z" />
    <glyph glyph-name="period" unicode="." horiz-adv-x="512" 
d="M420 322v-322h-328v322h328z" />
    <glyph glyph-name="slash" unicode="/" horiz-adv-x="811" 
d="M819 1485l-565 -1524h-262l567 1524h260z" />
    <glyph glyph-name="zero" unicode="0" 
d="M598 1436q37 0 77 -6.5t97 -25t113.5 -61.5t99.5 -106q53 -80 90 -217t37 -320q0 -305 -108 -489q-44 -78 -105 -127q-127 -109 -297 -109q-86 0 -166 27q-153 52 -246 211q-108 186 -108 487q0 103 10 172q31 312 213 459q128 105 293 105zM596 1196q-60 0 -104 -29
q-85 -59 -109 -223q-18 -117 -18 -254q0 -277 71 -389q56 -90 164 -90q64 0 109 35.5t71 102.5t37.5 153.5t11.5 199.5q0 285 -69 402q-57 92 -164 92z" />
    <glyph glyph-name="one" unicode="1" 
d="M838 1423v-1423h-306v924h-335v213q157 0 254 55q45 23 77 61q55 66 72 170h238z" />
    <glyph glyph-name="two" unicode="2" 
d="M1110 246v-246h-1042q0 116 41 227q23 62 56 111t95.5 104.5t123.5 100.5t181 127q90 59 103 69q21 16 28.5 22t34.5 32.5t40.5 49t26.5 60t13 76.5q0 91 -56.5 148t-148.5 57q-79 0 -131 -41q-56 -42 -75 -109t-23 -162l-277 2q-7 141 39 263q55 144 185.5 221.5
t291.5 77.5q257 -2 390 -160q96 -116 96 -279q0 -83 -27 -159q-19 -50 -48 -93t-73 -81.5t-75.5 -62t-90.5 -62.5q-118 -77 -210 -146q-60 -48 -90.5 -80t-51.5 -67h674z" />
    <glyph glyph-name="three" unicode="3" 
d="M61 492h277q4 -60 13 -100t34 -77q62 -96 197 -96q68 1 117.5 24.5t73 59.5t34 69t10.5 64q0 58 -26 105q-56 108 -226 106h-6q-26 0 -72 -4v205q14 -2 47 -3t90 8t93 32q33 22 51 61q18 42 18 80q-2 67 -41 111q-52 65 -157 65q-73 0 -117.5 -29.5t-64.5 -66.5
q-33 -69 -33 -148l-277 3q10 111 29 167q13 38 33 75.5t58.5 81t87 76t122 54t160.5 21.5q36 0 72 -4t101 -18.5t127.5 -53.5t106.5 -98q70 -96 70 -215q0 -21 -3 -44t-12.5 -58.5t-33 -71t-58.5 -62.5q-33 -27 -92 -47q87 -21 148 -76q104 -96 104 -250q0 -208 -160 -342
q-145 -121 -368 -121q-113 0 -201 29q-76 24 -135.5 67.5t-93 88t-55.5 97.5t-30 90t-10 71q-2 25 -2 74z" />
    <glyph glyph-name="four" unicode="4" 
d="M1135 565v-239h-191v-326h-274v326h-604v266l618 831h260v-858h191zM676 563l4 555l-385 -555h381z" />
    <glyph glyph-name="five" unicode="5" 
d="M1038 1411v-248h-583l-56 -315q9 14 27 29q31 31 92.5 54t145.5 23q110 0 202 -43q124 -55 187 -167t63 -255q0 -95 -26 -174q-39 -115 -131 -199t-211 -118q-80 -23 -173 -23t-180 25q-37 11 -72.5 26t-84.5 49t-84.5 77t-62.5 113.5t-30 154.5l285 -2q6 -62 37 -109
q65 -98 199 -98q114 0 177.5 79t63.5 195q0 52 -14 101q-8 26 -22 49.5t-40 50.5t-69.5 43t-99.5 16q-113 0 -179 -69q-22 -24 -34 -49h-259l138 784h794z" />
    <glyph glyph-name="six" unicode="6" 
d="M1096 1053l-275 2q-42 159 -192 159q-43 0 -74 -10q-40 -14 -72.5 -46t-44.5 -53t-20 -42q-42 -97 -49 -182q-2 -16 -5.5 -46t-5.5 -42q54 69 107 102q87 55 213 55q76 0 139 -20q143 -42 230 -174q73 -115 73 -271q0 -189 -100 -317q-71 -94 -176.5 -143.5t-225.5 -49.5
q-177 0 -309 99q-65 50 -112 125q-117 180 -117 485q0 97 12 186t40.5 180.5t83.5 170t132 131.5q125 84 283 84q92 -1 167.5 -23.5t124.5 -61t79.5 -75t50.5 -78.5q30 -58 43 -145zM612 737q-42 0 -90 -18q-45 -20 -75.5 -57t-42 -77.5t-15.5 -66t-4 -45.5
q0 -103 62 -183.5t165 -80.5q57 0 111 31q57 34 87 98.5t30 136.5q0 67 -25.5 125.5t-79 97t-123.5 39.5z" />
    <glyph glyph-name="seven" unicode="7" 
d="M1092 1411l-2 -240q-75 -83 -113 -131.5t-90 -130.5q-36 -57 -64.5 -110t-64 -134t-64 -185.5t-47.5 -223.5q-23 -185 -26 -256h-299q10 222 90 461q51 153 135.5 318t177.5 286q34 46 78 90h-682v256h971z" />
    <glyph glyph-name="eight" unicode="8" 
d="M328 758q-41 13 -62 24q-24 14 -45 33.5t-45.5 51.5t-39.5 80t-15 104q0 93 43 169t112.5 121.5t152.5 70t169 24.5q31 0 66.5 -4t94.5 -17t119.5 -46t106.5 -83q90 -97 90 -229q0 -137 -80 -219q-25 -28 -47 -39q-40 -28 -80 -41q127 -38 189 -113q76 -92 76 -225
q0 -182 -127 -303q-153 -142 -410 -142q-20 0 -38 0.5t-57.5 5t-73.5 12t-79.5 23.5t-82.5 38t-75.5 57t-66.5 79q-62 100 -62 220q0 183 134 282q59 47 133 66zM598 1219q-126 0 -184 -82q-31 -47 -31 -105q0 -56 29 -102q23 -36 69 -62t117 -26q120 2 178 76q37 47 37 116
q0 90 -61.5 137.5t-153.5 47.5zM600 651q-107 3 -178.5 -57.5t-71.5 -167.5q0 -105 70 -168t176 -63q92 0 154 41q34 24 51 51q43 60 43 137q0 57 -25 104q-19 41 -50.5 68t-66.5 37.5t-57.5 14t-44.5 3.5z" />
    <glyph glyph-name="nine" unicode="9" 
d="M92 358h273q5 -25 14.5 -48t30 -51.5t59.5 -46t92 -17.5q69 0 122 36.5t91 137.5q41 115 49 254q-19 -26 -31 -41t-41 -41.5t-58 -41.5t-75.5 -27.5t-99.5 -12.5q-155 0 -272 86q-29 20 -56.5 51t-56.5 77.5t-47 113.5t-18 143q0 115 38 205q61 139 190 220t282 81
q269 -7 411 -213q121 -175 119 -474v-10q0 -222 -68 -401q-10 -28 -21 -51.5t-33 -62.5t-47 -70.5t-64 -66t-83 -58t-104.5 -39t-128.5 -15.5q-170 0 -301 91q-143 100 -166 292zM571 1198q-58 0 -104 -29q-39 -24 -65.5 -59t-37 -71.5t-13.5 -59t-3 -43.5q0 -48 17 -100
q59 -158 210 -158q103 0 164.5 77t61.5 181q-2 106 -64 184.5t-166 77.5z" />
    <glyph glyph-name="colon" unicode=":" horiz-adv-x="598" 
d="M506 1049v-322h-328v322h328zM506 322v-322h-328v322h328z" />
    <glyph glyph-name="semicolon" unicode=";" horiz-adv-x="598" 
d="M506 1049v-322h-328v322h328zM506 322v-254q-2 -81 -10 -131q-25 -125 -127 -201q-88 -64 -185 -74v143q36 9 64 27q30 21 51 56.5t27 72.5q4 16 4 39h-152v322h328z" />
    <glyph glyph-name="less" unicode="&#x3c;" horiz-adv-x="1024" 
d="M1024 141l-1022 471v215l1022 480v-232l-741 -354l741 -352v-228z" />
    <glyph glyph-name="equal" unicode="=" 
d="M49 903h1096v-209h-1096v209zM49 545h1096v-207h-1096v207z" />
    <glyph glyph-name="greater" unicode="&#x3e;" horiz-adv-x="1024" 
d="M2 143v228l743 352l-743 354v232l1022 -480v-215z" />
    <glyph glyph-name="question" unicode="?" horiz-adv-x="1110" 
d="M678 434l-268 2q0 71 2.5 111.5t19 97t49.5 98.5q18 21 88 80l49 43q40 32 60 52q61 61 61 149q0 74 -49 118t-123 44q-160 0 -200 -146q-12 -40 -15 -104l-295 2q0 2 1 18.5t2 24.5t3 27.5t4.5 33t7.5 34.5t10.5 37.5t14 38.5t19 40t24 38.5t29.5 39.5q134 164 397 164
q196 0 320 -93q162 -117 162 -323q0 -51 -13 -100q-12 -53 -40.5 -97.5t-96.5 -103.5q-2 -2 -28.5 -23t-41.5 -32q-12 -9 -33.5 -24.5t-31.5 -23.5t-24.5 -22.5t-24.5 -31t-19 -38.5q-5 -13 -8.5 -24.5t-5.5 -18.5t-3 -21.5t-1.5 -18t-1 -23.5t-0.5 -25zM698 311v-311h-315
v311h315z" />
    <glyph glyph-name="at" unicode="@" horiz-adv-x="1835" 
d="M1149 918l25 104h161l-67 -317q-31 -150 -37 -183q-21 -108 -21 -162q0 -73 54 -73q36 2 81 41.5t87 109.5q47 76 75.5 171t34.5 150t6 101q0 123 -41 211q-30 68 -80.5 118t-98.5 74.5t-106.5 38.5t-90.5 16.5t-64 2.5q-45 0 -94 -7t-116.5 -26t-143 -61.5
t-144.5 -104.5q-136 -122 -212 -290t-76 -349q0 -134 47 -250q36 -89 100.5 -157.5t145 -109.5t170 -62t184.5 -21q253 0 491 152q113 71 185 147l82 -104q-339 -332 -752 -332q-85 0 -172 16q-344 62 -506 310q-115 167 -115 411q0 345 209 613q135 174 325.5 268t409.5 94
q222 0 375 -108q40 -28 76 -65t74.5 -95t61 -142.5t22.5 -183.5q0 -162 -60 -328t-168 -276q-121 -119 -254 -119q-14 0 -30.5 2.5t-43 10t-50 28t-37.5 51.5q-10 22 -17 64q-1 -1 -8.5 -10.5t-11 -14t-12 -14t-15.5 -16.5t-18 -16.5t-23 -18.5q-92 -66 -186 -66
q-57 0 -111 23q-70 33 -118 110t-48 207q0 139 57.5 277t159.5 223q108 87 222 84q113 0 182 -78q11 -12 20.5 -27t16 -27.5t8.5 -14.5zM1090 715q0 112 -68 164q-36 30 -88 30q-54 0 -103 -35q-74 -53 -117.5 -166.5t-43.5 -215.5q0 -121 69 -168q35 -25 80 -25
q38 0 89 29.5t93 89.5q49 73 69 159.5t20 137.5z" />
    <glyph glyph-name="A" unicode="A" horiz-adv-x="1409" 
d="M868 1446l549 -1446h-332l-114 324h-537l-119 -324h-325l551 1446h327zM893 553l-188 569l-195 -569h383z" />
    <glyph glyph-name="B" unicode="B" horiz-adv-x="1366" 
d="M119 1446h569h27q54 0 82.5 -0.5t78 -4t81.5 -12.5t71.5 -24t71.5 -40.5t59 -59.5q76 -96 76 -220q0 -135 -92 -227q-37 -39 -105 -74q265 -85 265 -356q0 -69 -21 -133q-9 -31 -25 -62t-44.5 -70.5t-76 -74t-108.5 -55.5q-59 -22 -107.5 -26.5t-179.5 -6.5h-622v1446z
M428 1200v-340h272q95 5 131 19q39 16 64 47q33 44 33 102q0 67 -33 111q-11 15 -24 25.5t-32 17t-30.5 11t-37 6t-33.5 2t-37.5 0t-32.5 -0.5h-240zM428 645v-393h279q112 0 163 16q45 16 80 59t35 122q0 71 -35 120q-14 21 -35.5 35.5t-39.5 22t-50 12t-47.5 5t-52 1
t-43.5 0.5h-254z" />
    <glyph glyph-name="C" unicode="C" horiz-adv-x="1449" 
d="M1386 963h-311q-14 58 -31 90q-14 27 -34 52t-53.5 51.5t-84 42t-112.5 15.5q-76 0 -138 -25t-100.5 -61.5t-67 -89t-42 -97t-21.5 -96t-9 -75.5t-1 -45q0 -27 1 -50t10 -82t25 -106t51.5 -102t84.5 -90q86 -64 203 -64q106 0 184 54q119 78 141 274l316 -2
q-11 -202 -129 -358q-176 -236 -516 -236q-259 0 -433 146q-70 58 -121.5 135.5t-77 144t-40 143t-17 117t-2.5 80.5q0 255 129 453q196 301 576 301q248 0 416 -140q73 -60 121 -133q47 -75 71 -161q6 -29 12 -86z" />
    <glyph glyph-name="D" unicode="D" horiz-adv-x="1449" 
d="M119 1446h545q45 0 139 -4q103 -8 183 -35t155 -84q58 -44 102.5 -100.5t70.5 -115t43.5 -112t24.5 -108t9 -85.5t2 -61q0 -90 -13 -155q-14 -120 -51 -213.5t-110 -175.5q-98 -111 -215 -154q-24 -9 -48.5 -16t-53.5 -11.5t-48 -7.5t-54 -4.5t-48.5 -2t-54.5 -1
t-50 -0.5h-528v1446zM432 1182v-918h242q113 2 184 26t127 103q88 123 88 336q0 244 -129 363q-49 43 -108 65q-64 25 -209 25h-195z" />
    <glyph glyph-name="E" unicode="E" horiz-adv-x="1280" 
d="M1208 1446v-258h-776v-318h713v-247h-713v-357h791v-266h-1104v1446h1089z" />
    <glyph glyph-name="F" unicode="F" horiz-adv-x="1150" 
d="M1139 1446v-264h-703v-338h611v-250h-611v-594h-317v1446h1020z" />
    <glyph glyph-name="G" unicode="G" horiz-adv-x="1449" 
d="M1339 782v-782h-202l-31 162q-2 -2 -22.5 -26t-36.5 -40q-139 -133 -355 -133q-281 0 -454 203q-177 212 -177 547q0 108 20.5 205t51.5 166t74 129t82 97t82 66q115 70 202 90q76 17 162 17q260 0 428 -174q77 -77 115 -172q31 -72 41 -164l-305 2q-12 52 -31 92
q-79 150 -252 150q-111 0 -190 -64q-87 -67 -123.5 -184.5t-36.5 -249.5q0 -286 137 -414q88 -86 221 -86q85 0 144 31q80 39 124 122.5t46 176.5h-297v233h583z" />
    <glyph glyph-name="H" unicode="H" horiz-adv-x="1449" 
d="M1331 1446v-1446h-317v625h-578v-625h-317v1446h317v-545h578v545h317z" />
    <glyph glyph-name="I" unicode="I" horiz-adv-x="555" 
d="M436 1446v-1446h-317v1446h317z" />
    <glyph glyph-name="J" unicode="J" horiz-adv-x="1067" 
d="M952 1446v-975q0 -14 -1 -40.5t-1 -39.5q-8 -103 -32 -164q-25 -64 -68 -114q-123 -150 -375 -150q-23 0 -42.5 1t-59 6t-73 14.5t-76.5 28.5t-76.5 45.5t-66 68.5t-52.5 94q-37 92 -37 264v56h295q-3 -60 0 -119q5 -97 32 -135q40 -66 148 -66q66 0 104 29q38 28 50 73
t14 138v985h317z" />
    <glyph glyph-name="K" unicode="K" horiz-adv-x="1449" 
d="M1401 1446l-567 -572l620 -874h-399l-439 649l-184 -182v-467h-313v1446h313v-610l569 610h400z" />
    <glyph glyph-name="L" unicode="L" horiz-adv-x="1150" 
d="M1118 272v-272h-999v1446h317v-1174h682z" />
    <glyph glyph-name="M" unicode="M" horiz-adv-x="1792" 
d="M1673 1446v-1446h-299l15 1112l-365 -1112h-250l-368 1112l12 -1112h-299v1446h448l334 -1028l328 1028h444z" />
    <glyph glyph-name="N" unicode="N" horiz-adv-x="1449" 
d="M1331 1446v-1446h-315l-598 997l6 -997h-305v1446h321l592 -991l-6 991h305z" />
    <glyph glyph-name="O" unicode="O" horiz-adv-x="1536" 
d="M774 1483q284 0 473 -178q41 -38 76.5 -85.5t72 -118.5t58 -168.5t21.5 -209.5q0 -43 -3 -85t-19 -120t-44 -145.5t-85.5 -145.5t-135.5 -135q-175 -129 -418 -129q-163 0 -299 60q-56 25 -107 59.5t-108.5 94.5t-98.5 133t-68.5 180.5t-27.5 232.5q0 190 62 340
q82 201 256 311.5t395 108.5zM770 1223q-92 0 -166 -39q-46 -24 -82.5 -60t-59 -72t-39 -81.5t-24 -78.5t-11.5 -73.5t-4.5 -56t-0.5 -35.5q0 -227 94 -356q16 -22 39 -44t59.5 -46.5t88.5 -40t110 -15.5q112 0 201 62q37 26 67 63t48 72t31.5 79.5t19 74.5t9 69.5t3.5 51.5
v32q0 122 -35.5 231.5t-116.5 178.5q-92 82 -231 84z" />
    <glyph glyph-name="P" unicode="P" horiz-adv-x="1323" 
d="M119 1446h667q99 -5 168.5 -22t135.5 -62q32 -22 60.5 -51.5t57.5 -75t46.5 -111t17.5 -143.5q0 -209 -131 -334q-72 -72 -174 -102q-51 -15 -96.5 -19t-147.5 -6h-289v-520h-315v1446zM434 1188v-418h252h46.5t42 2t46.5 6.5t37 13t40 23.5t30 35q37 53 37 129
q0 112 -76 166q-13 9 -27 16t-31 11.5t-29 7.5t-33 4.5t-30 2t-34 1t-31 0.5h-240z" />
    <glyph glyph-name="Q" unicode="Q" horiz-adv-x="1536" 
d="M1288 182l178 -162l-153 -167l-203 190q-54 -31 -143.5 -55.5t-200.5 -24.5q-148 0 -277 51q-57 23 -110.5 57t-113 94.5t-103 135t-72.5 184.5t-29 238q0 304 156 504q27 34 58 65t82.5 67.5t108.5 62.5t138 43.5t170 17.5q292 0 483 -189q218 -213 218 -569
q0 -265 -117 -451q-30 -45 -70 -92zM893 246l-135 127l143 159l166 -149q23 36 29 49q57 121 57 297q0 283 -154 412q-95 82 -229 82q-136 0 -235 -86q-43 -37 -74 -89.5t-45.5 -97t-22.5 -98t-9 -76.5t-1 -49q0 -194 72 -319q49 -88 133.5 -135.5t185.5 -47.5q58 0 119 21z
" />
    <glyph glyph-name="R" unicode="R" horiz-adv-x="1409" 
d="M119 1446h661q76 0 113 -2q26 -2 40 -3.5t50.5 -7t64.5 -16.5t63.5 -27.5t68 -45t59.5 -64.5q74 -103 74 -246q0 -63 -16 -118t-42.5 -93t-50.5 -62.5t-49 -41.5q-40 -25 -72 -37q30 -9 51.5 -18.5t57 -40t57.5 -74.5q35 -71 54 -246q8 -71 10 -104q7 -67 11 -93
t14 -54.5t28 -51.5h-330q-21 43 -28 121q-3 31 -7 85t-8.5 99t-13.5 84q-20 91 -72 131q-28 22 -63.5 33t-60 12.5t-70.5 1.5h-281v-567h-313v1446zM432 1198v-401h299q115 3 160 20q110 45 110 184q0 72 -38 125q-30 37 -81 54.5t-139 17.5h-311z" />
    <glyph glyph-name="S" unicode="S" horiz-adv-x="1323" 
d="M1210 1018l-297 2q-10 60 -18 80q-16 39 -45.5 67t-57.5 41t-64 20t-51.5 8t-33.5 1q-120 0 -176.5 -48t-56.5 -120q0 -45 28 -78q7 -8 14.5 -14.5t18 -12.5t17 -9.5t22.5 -9t23 -8t30.5 -9.5t34.5 -10q19 -5 151 -39.5t199 -57.5q176 -60 252 -170q66 -94 66 -219
q0 -155 -88 -270q-152 -199 -500 -199q-105 0 -194 19t-152 49.5t-112.5 73t-79 86t-48.5 92.5q-35 83 -37 198h312q4 -88 32 -139q22 -38 59 -65.5t69.5 -40t74 -19.5t57.5 -7.5t35 -0.5q60 0 107 12q60 16 97 51.5t47.5 67t10.5 63.5q0 62 -45 101q-16 12 -41.5 24
t-60 23.5t-59.5 19t-61.5 17.5t-45.5 12q-87 23 -182 55q-54 18 -86 29.5t-76.5 33.5t-71.5 46t-54 61.5t-42 83.5q-22 69 -22 140q0 102 45 188q25 48 64 88.5t98 77.5t147 58.5t194 21.5q121 0 205 -23q27 -7 53.5 -17t70 -34t79 -54t70 -79.5t53.5 -108.5q14 -45 22 -149
z" />
    <glyph glyph-name="T" unicode="T" 
d="M1192 1446v-270h-436v-1176h-318v1176h-436v270h1190z" />
    <glyph glyph-name="U" unicode="U" horiz-adv-x="1449" 
d="M1335 1446v-852q0 -72 -2 -109q-12 -209 -119 -338q-70 -85 -184 -134.5t-303 -49.5q-290 0 -444 135q-96 90 -131 199q-20 60 -28 121.5t-9 179.5v848h315v-871q0 -84 8 -126q6 -35 16 -63.5t32 -59t53 -51.5t81.5 -34.5t114.5 -13.5q109 0 176 43q31 20 52 49.5
t31.5 55.5t16.5 68.5t7 65t2 69.5v868h315z" />
    <glyph glyph-name="V" unicode="V" horiz-adv-x="1280" 
d="M1296 1446l-481 -1446h-358l-473 1446h329l328 -1084l328 1084h327z" />
    <glyph glyph-name="W" unicode="W" horiz-adv-x="1878" 
d="M1892 1446l-391 -1446h-317l-248 1061l-244 -1061h-321l-385 1446h317l234 -1069l254 1069h299l249 -1069l238 1069h315z" />
    <glyph glyph-name="X" unicode="X" horiz-adv-x="1366" 
d="M1331 1446l-465 -690l506 -756h-379l-315 518l-324 -518h-362l512 756l-471 690h368l287 -481l293 481h350z" />
    <glyph glyph-name="Y" unicode="Y" horiz-adv-x="1366" 
d="M1378 1446l-538 -889v-557h-314v561l-538 885h360l338 -610l340 610h352z" />
    <glyph glyph-name="Z" unicode="Z" horiz-adv-x="1323" 
d="M1245 1446v-234l-809 -954h836v-258h-1223v250l803 938h-748v258h1141z" />
    <glyph glyph-name="bracketleft" unicode="[" horiz-adv-x="641" 
d="M641 1446v-223h-260v-1370h260v-224h-526v1817h526z" />
    <glyph glyph-name="backslash" unicode="\" horiz-adv-x="724" 
d="M707 -37h-209l-469 1483h211z" />
    <glyph glyph-name="bracketright" unicode="]" horiz-adv-x="641" 
d="M0 1446h526v-1817h-526v224h260v1370h-260v223z" />
    <glyph glyph-name="asciicircum" unicode="^" horiz-adv-x="1492" 
d="M1231 662h-242l-239 503l-248 -503h-240l400 784h186z" />
    <glyph glyph-name="underscore" unicode="_" horiz-adv-x="1024" 
d="M1044 -467h-1064v211h1064v-211z" />
    <glyph glyph-name="grave" unicode="`" horiz-adv-x="598" 
d="M59 1466l193 -290h-205l-309 290h321z" />
    <glyph glyph-name="a" unicode="a" horiz-adv-x="1150" 
d="M1077 0h-293q-18 60 -18 100q-136 -131 -346 -131q-86 0 -152.5 21.5t-105.5 54.5t-64 77t-34 84.5t-9 82.5q0 28 5 57t20 69t50.5 77.5t88.5 62.5q27 13 58.5 23t72.5 17.5t63.5 11.5t74 10.5t61.5 7.5q162 23 194 53q9 8 14.5 24.5t7 26.5t1.5 14q-2 144 -188 144
q-58 0 -107 -17q-83 -31 -97 -140q-1 -3 -1 -5l-273 2q9 123 78 205q58 70 154.5 108.5t255.5 38.5q148 0 252 -37q65 -22 114 -65q45 -38 68 -84q25 -61 25 -170q0 -36 -2.5 -108.5t-2.5 -108.5q-4 -152 -4 -225q0 -114 8 -172t31 -109zM762 393v117q-18 -11 -31 -16
q-13 -6 -26 -10t-34.5 -8.5t-33 -6.5t-47 -7.5t-51.5 -8.5q-2 0 -20 -3.5t-44.5 -10.5t-42.5 -13q-82 -39 -82 -127q0 -23 7 -45.5t23.5 -45t50 -36.5t79.5 -14q119 0 192 73q29 29 46 60q14 35 14 102z" />
    <glyph glyph-name="b" unicode="b" horiz-adv-x="1236" 
d="M385 131v-131h-272v1446h286v-387q-2 -45 -2 -133q2 2 18 20.5t31 32.5q111 100 279 100q57 0 114.5 -15.5t119 -55t108.5 -98.5t77 -155t30 -216q0 -203 -84 -349q-132 -221 -383 -221q-100 0 -171 33t-112 76q-16 16 -39 53zM637 854q-46 0 -88 -17t-79 -52.5
t-59 -100.5t-22 -152q0 -89 22 -155.5t59 -103t79.5 -53.5t89.5 -17q66 0 115.5 30t76.5 80t40 106t12 116q0 72 -21 143t-65 113q-63 63 -160 63z" />
    <glyph glyph-name="c" unicode="c" horiz-adv-x="1150" 
d="M1110 682h-283q-5 30 -14 51q-24 62 -79 95.5t-124 33.5q-51 0 -95 -17.5t-83 -55.5t-61.5 -107.5t-22.5 -163.5q0 -17 0.5 -32t5.5 -51t14 -64.5t28.5 -64t45.5 -59.5t68.5 -40.5t95.5 -16.5q98 0 158 57t74 154h278q-23 -159 -108 -260q-144 -172 -404 -172
q-207 0 -344 105q-35 26 -65.5 60t-64 87t-53.5 129t-20 164q0 134 45 246q16 40 39 78.5t65.5 84t95 78.5t132 55.5t172.5 22.5q94 -1 172.5 -22t131 -53t92.5 -76t61.5 -84.5t32.5 -83.5q9 -32 14 -78z" />
    <glyph glyph-name="d" unicode="d" horiz-adv-x="1236" 
d="M840 922v524h286v-1446h-274v131q-8 -14 -35 -47q-100 -115 -280 -115q-187 0 -312 119q-162 154 -162 440q0 132 33 232q48 147 160 233t264 86q96 0 164.5 -30t108.5 -70q20 -18 47 -57zM600 852q-54 0 -106 -23q-61 -31 -100.5 -105t-39.5 -196q0 -185 95 -270
q59 -55 153 -55q48 0 89.5 16.5t78 51.5t57.5 100.5t21 154.5q0 189 -96 273q-62 53 -152 53z" />
    <glyph glyph-name="e" unicode="e" horiz-adv-x="1150" 
d="M1100 451h-750q0 -3 1.5 -20t4 -35t6.5 -34q7 -29 20 -56t38.5 -59t72.5 -51.5t109 -19.5q111 0 172 88q18 28 33 62h274q-17 -59 -30 -86q-39 -81 -107.5 -144.5t-152.5 -93.5q-87 -33 -197 -33q-126 0 -227 41q-100 42 -171.5 122.5t-104.5 179t-32 208.5
q0 154 64.5 280.5t186 202.5t276.5 76q170 0 297 -92q219 -161 217 -525v-11zM352 641h455q-8 67 -27 109q-28 60 -80.5 93.5t-115.5 33.5q-66 0 -121 -34.5t-84 -94.5q-20 -41 -27 -107z" />
    <glyph glyph-name="f" unicode="f" horiz-adv-x="681" 
d="M668 1446v-211q-94 5 -113 4q-65 0 -90 -27q-16 -18 -21 -82v-81h197v-197h-195v-852h-288v852h-164v197h164v55q1 50 2 70t7 58t20 66t38 54q55 63 136 82.5t192 19.5q66 0 115 -8z" />
    <glyph glyph-name="g" unicode="g" horiz-adv-x="1236" 
d="M1126 1049v-918q-2 -23 -2 -65q-5 -114 -31 -186q-24 -64 -65 -113q-134 -158 -430 -158q-66 0 -149 10q-268 41 -334 244q-13 34 -17 74h289q2 -12 7 -27l5 -16q49 -93 205 -93q80 0 139 29q24 12 41.5 27.5t28.5 37.5t17.5 39t10 46.5t5 45t2.5 48.5v121
q-36 -52 -80 -84q-104 -78 -246 -78q-202 0 -327 131q-132 141 -132 381q0 225 111 366q21 28 48.5 53t71 53t105.5 45t133 17q154 0 250 -86q32 -26 70 -82v138h274zM596 854q-130 0 -193 -96q-55 -78 -55 -209q0 -72 14 -117q7 -25 20.5 -51t40 -59t72.5 -53.5t105 -20.5
q79 0 133 37q48 31 82.5 99.5t34.5 170.5q0 132 -63 216t-191 83z" />
    <glyph glyph-name="h" unicode="h" 
d="M395 1446l2 -537q20 31 39 52q113 118 285 118q27 0 54.5 -2.5t75 -16t85.5 -36t75 -68.5t54 -108q5 -18 8.5 -35t5 -38t2.5 -32.5t1.5 -38.5t0.5 -36v-668h-284v621q0 29 -2 45q0 104 -72 149q-46 27 -109 27q-118 0 -184 -101q-12 -20 -19.5 -41t-11 -49t-4.5 -41
t-1.5 -50.5t-0.5 -43.5v-516h-282v1446h282z" />
    <glyph glyph-name="i" unicode="i" horiz-adv-x="512" 
d="M399 1446v-244h-286v244h286zM399 1049v-1049h-286v1049h286z" />
    <glyph glyph-name="j" unicode="j" horiz-adv-x="512" 
d="M399 1049v-1051q0 -119 -10 -168q-15 -64 -48 -107.5t-81 -65t-98 -30t-115 -8.5q-57 0 -113 6v232q39 -8 99 -2q49 7 63.5 39.5t14.5 113.5v1041h288zM399 1446v-244h-286v244h286z" />
    <glyph glyph-name="k" unicode="k" horiz-adv-x="1150" 
d="M1104 1049l-395 -390l442 -659h-350l-289 467l-117 -111v-356h-282v1446h282l-2 -784l371 387h340z" />
    <glyph glyph-name="l" unicode="l" horiz-adv-x="512" 
d="M399 1446v-1446h-286v1446h286z" />
    <glyph glyph-name="m" unicode="m" horiz-adv-x="1835" 
d="M387 1049v-144q19 27 33 43q110 131 303 131q172 0 258 -112q13 -16 39 -62q37 50 63 74q110 100 281 100q117 0 210 -56t128 -163q18 -57 20 -153v-707h-284v662q-4 57 -18 94t-54 61q-41 25 -100 25q-112 0 -168 -80q-7 -10 -12.5 -20t-9.5 -22t-7 -19.5t-5 -22
t-3 -20.5t-1.5 -23t-0.5 -20.5v-23.5v-22v-569h-283v641q-2 84 -12 112q-16 41 -53 66q-40 25 -101 25q-65 0 -109 -27t-65 -59q-18 -28 -27.5 -63.5t-11 -56t-2.5 -69.5v-569h-282v1049h274z" />
    <glyph glyph-name="n" unicode="n" 
d="M387 1049v-146q35 56 88 96q111 80 256 80q34 0 69.5 -6t89.5 -25t99.5 -66t69.5 -116q5 -14 8.5 -28t6 -30.5t4 -27.5t2.5 -31t1.5 -27t1 -31t0.5 -29v-662h-284v604q0 37 -1 56.5t-6 51t-19 55t-36 40.5q-50 35 -112 35q-125 0 -189 -94q-7 -10 -12.5 -20.5t-9 -23
t-6.5 -21t-5 -23.5t-3.5 -21.5t-2 -24t-1 -22.5t-1 -25t-0.5 -24v-543h-282v1049h274z" />
    <glyph glyph-name="o" unicode="o" 
d="M596 1079q221 0 365 -125q176 -154 176 -428q0 -246 -146 -401q-151 -156 -391 -156q-122 0 -219 39q-107 42 -180.5 122t-107.5 180t-34 216q0 137 41 230q16 40 38 78t64 83.5t94 79.5t130.5 57.5t169.5 24.5zM596 860q-47 0 -89.5 -18t-79 -55.5t-58 -104.5
t-21.5 -156q0 -219 121 -303q56 -37 131 -37q70 0 129 39q117 82 117 305q0 201 -111 285q-60 45 -139 45z" />
    <glyph glyph-name="p" unicode="p" horiz-adv-x="1236" 
d="M385 1049v-131q32 41 57 63q103 98 267 98q100 0 184 -39q40 -18 77.5 -45t75.5 -72t65.5 -100.5t45 -134.5t17.5 -170q0 -269 -146 -422q-127 -127 -309 -127q-177 0 -283 111q-19 19 -37 49v-500h-286v1420h272zM635 846q-48 0 -90 -17t-78 -53t-57 -102t-21 -154
q0 -195 107 -276q63 -45 143 -45q120 0 184 92q60 81 60 229q0 145 -58 230q-70 98 -190 96z" />
    <glyph glyph-name="q" unicode="q" horiz-adv-x="1236" 
d="M1126 1049v-1420h-286v502q-2 -3 -11 -14.5t-19.5 -24.5t-23.5 -26q-100 -97 -270 -97q-185 0 -309 129q-144 152 -144 420q0 210 87 350q132 211 382 211q166 -2 267 -94q21 -19 53 -65v129h274zM602 848q-69 0 -115 -29.5t-71 -64.5q-32 -44 -48 -111.5t-16 -130.5
q0 -58 19 -131q6 -21 13 -40t25 -47.5t41.5 -48.5t62.5 -35t87 -15q49 0 91 17t78.5 53.5t57.5 103t21 157.5q0 196 -105 275q-54 41 -141 47z" />
    <glyph glyph-name="r" unicode="r" horiz-adv-x="768" 
d="M756 1069v-266q-60 10 -94 10q-137 0 -211 -113q-23 -35 -35 -82.5t-14 -77.5t-3 -89v-451h-286v1049h272v-193q39 74 71 109q65 72 158 96q48 12 93 12q12 0 30 -2t19 -2z" />
    <glyph glyph-name="s" unicode="s" horiz-adv-x="1067" 
d="M985 743h-270q-6 47 -25 78q-46 66 -170 66h-18t-39.5 -4.5t-50.5 -14.5t-40 -32t-18 -54q0 -56 54 -80q34 -16 141 -40q172 -34 252.5 -61t134.5 -79q84 -75 84 -196q0 -113 -64 -195q-122 -162 -417 -162q-316 0 -435 178q-49 76 -57 193h275q10 -63 32 -100
q23 -31 71.5 -52.5t119.5 -21.5q78 0 127 29q65 36 65 102q0 18 -10 41q-19 43 -84 61q-60 19 -179 44.5t-179 45.5q-215 70 -215 267q2 145 104 225q124 98 346 98q279 0 393 -135q63 -79 72 -201z" />
    <glyph glyph-name="t" unicode="t" horiz-adv-x="724" 
d="M662 1049v-197h-203v-494q0 -66 2 -79q8 -34 34 -51t83 -17q32 0 94 4l-2 -219q-79 -8 -183 -8q-126 0 -192.5 33t-95.5 98q-29 63 -29 182v551h-170v197h170v317h289v-317h203z" />
    <glyph glyph-name="u" unicode="u" 
d="M1079 1049v-1049h-274v147q-39 -53 -62 -73q-110 -105 -274 -105q-24 0 -50.5 2.5t-71 15.5t-82 34t-75 63t-57.5 98q-24 69 -24 203v664h284v-580q1 -21 1 -50t0.5 -41t2.5 -28t6 -31q14 -43 53.5 -75.5t114.5 -32.5q83 0 138 45q21 17 36.5 36t25 45.5t14.5 41.5
t7.5 51.5t3 46t1.5 51.5v521h282z" />
    <glyph glyph-name="v" unicode="v" horiz-adv-x="1024" 
d="M1032 1049l-356 -1049h-322l-362 1049h301l225 -762l227 762h287z" />
    <glyph glyph-name="w" unicode="w" horiz-adv-x="1622" 
d="M1626 1049l-334 -1049h-295l-188 760l-180 -760h-299l-334 1049h303l197 -758l176 758h280l181 -758l196 758h297z" />
    <glyph glyph-name="x" unicode="x" horiz-adv-x="1110" 
d="M1079 1049l-358 -490l403 -559h-344l-229 348l-227 -348h-340l397 553l-363 496h344l193 -289l193 289h331z" />
    <glyph glyph-name="y" unicode="y" horiz-adv-x="1067" 
d="M1075 1049l-387 -1045q-39 -108 -63.5 -162.5t-55.5 -95.5q-34 -44 -74 -71.5t-85.5 -37t-64.5 -11t-58 -1.5l-191 2v238h115q53 0 80.5 8t48.5 29q37 33 37 94q0 22 -17 84l-368 969h311l240 -746l233 746h299z" />
    <glyph glyph-name="z" unicode="z" horiz-adv-x="1067" 
d="M981 1049v-199l-584 -637h619v-213h-965v211l588 627h-547v211h889z" />
    <glyph glyph-name="braceleft" unicode="{" horiz-adv-x="724" 
d="M258 848v254q0 75 2 112q3 105 40 178t126 109q32 13 74.5 19.5t71 7.5t122.5 4v-14q-20 -4 -59 -17q-114 -37 -143 -151q-11 -45 -11 -176v-197q-2 -199 -9 -252q-12 -81 -50 -131q-42 -56 -135 -84q81 -26 129 -74q44 -52 55 -117.5t12 -209.5v-43v-224v-33v-37.5
t1 -32.5t4 -37t7.5 -32t11.5 -36t17 -31q7 -11 14.5 -20.5t16.5 -17.5t15.5 -13.5t18.5 -12t18 -9.5t21 -8.5t20 -7t23 -7t23 -7.5v-12q-111 0 -166 6q-113 15 -176 68q-16 13 -28.5 27.5t-21.5 34.5t-16 33t-11.5 39.5t-7 36.5t-4 41.5t-2 37.5t-1 41t-0.5 36v351
q0 65 -10.5 111.5t-44.5 88.5q-22 29 -53 47q-22 11 -46 17v14q28 6 56 21q28 16 47.5 44t29 53t14 66.5t5 62.5t0.5 63v20z" />
    <glyph glyph-name="bar" unicode="|" horiz-adv-x="468" 
d="M340 -512h-211v2044h211v-2044z" />
    <glyph glyph-name="braceright" unicode="}" horiz-adv-x="724" 
d="M467 170v-254q0 -139 -8 -188q-25 -155 -158 -209q-13 -5 -26.5 -9.5t-24 -7t-28.5 -5t-28 -3.5t-34.5 -2t-36 -1.5t-44 -1.5t-48.5 -1v12q65 16 103.5 36t68.5 63q29 44 35 88.5t6 156.5v199q2 199 9 251q12 81 50 132q40 54 137 82q-86 26 -129 76q-46 51 -57 116
t-12 210v42v224q2 99 -5 146.5t-32 88.5q-6 10 -13.5 19.5t-13.5 16.5t-16 14t-15.5 11t-18 10t-17 8.5t-19.5 7.5t-19 6.5t-21.5 7t-20.5 6.5v14q17 -1 50.5 -2t49.5 -2q82 -4 137.5 -17.5t104.5 -54.5q18 -15 32 -34t23.5 -34.5t16 -43t10.5 -40t6 -46t2.5 -42t1 -46.5
t0.5 -42v-262q0 -8 -0.5 -39t0 -42.5t1.5 -38.5t4.5 -42.5t8.5 -37.5t13.5 -39.5t19.5 -34.5q23 -38 63 -60q15 -9 43 -18v-12q-37 -11 -55 -23q-28 -16 -47.5 -44t-29 -53t-14 -66.5t-5 -62.5t-0.5 -63v-20z" />
    <glyph glyph-name="asciitilde" unicode="~" horiz-adv-x="1492" 
d="M741 494l-51 24q-100 47 -158 47q-35 0 -69 -14q-29 -12 -55 -37.5t-78 -87.5l-99 178q123 182 299 182q37 0 79 -11t65 -20.5t74 -33.5l71 -33q103 -43 148 -43q33 0 65 12q53 24 113 84q14 17 22 31l95 -182q-16 -21 -27 -29q-14 -15 -34.5 -33t-57.5 -44t-85.5 -43
t-96.5 -17q-46 0 -91 14.5t-129 55.5z" />
    <glyph glyph-name="exclamdown" unicode="&#xa1;" horiz-adv-x="598" 
d="M104 0v385l80 621h144l80 -617v-389h-304zM98 1137v309h316v-309h-316z" />
    <glyph glyph-name="sterling" unicode="&#xa3;" horiz-adv-x="1236" 
d="M1174 975h-283q-2 73 -21 127.5t-71 87.5q-55 35 -129 35q-78 0 -135 -45q-23 -16 -44.5 -53.5t-21.5 -88.5q0 -38 10 -71q5 -16 9.5 -28.5t12 -29.5t12.5 -27t20 -38.5t24 -46.5h270v-168h-213q21 -77 21 -109q0 -84 -43 -153q-18 -30 -41.5 -57t-35 -38t-50.5 -47
q95 43 182 43q56 0 123 -16q9 -2 29.5 -8t31 -8.5t27 -6t31.5 -5t31 -1.5q103 0 184 84l121 -209q-46 -48 -128 -86.5t-196 -38.5q-76 0 -160 21q-17 5 -66 19.5t-70.5 20t-60 11.5t-73.5 6q-23 0 -45 -3t-41.5 -9.5t-35 -12.5t-32.5 -15.5t-25.5 -15t-22 -14.5t-15.5 -10
l-125 187l18 12q18 13 30 22.5t35 29.5t39.5 38t36.5 45t32.5 53.5t21 60.5t8.5 68q0 16 -2 33t-5 29.5t-7.5 27t-7.5 21.5t-7.5 18.5t-5.5 12.5h-198v168h78l53 -2q-90 130 -90 260q0 102 51 190q24 41 59.5 77t89.5 70t134 54t176 20q223 0 356 -116q44 -40 73 -81
t52.5 -118t24.5 -176z" />
    <glyph glyph-name="currency" unicode="&#xa4;" horiz-adv-x="1366" 
d="M1151 379l164 -162l-160 -158l-162 164q-44 -31 -63 -39q-117 -57 -248 -57q-149 0 -252 61q-10 4 -61 35l-160 -160l-158 158l162 160q-26 38 -43 70.5t-35 100.5t-18 144q0 170 94 312l-158 159l158 158l158 -160q40 27 55 35q114 64 260 64q142 0 254 -62q4 -2 59 -35
l158 158l160 -158l-160 -159q2 -3 16 -26t25 -42q53 -110 53 -246q0 -59 -9 -110t-27 -91.5t-30.5 -62.5t-31.5 -51zM1042 696q0 66 -22 129q-38 105 -131.5 169.5t-206.5 64.5q-77 -3 -141 -29q-103 -44 -160 -134t-57 -202q0 -82 30 -149q42 -97 133.5 -155t198.5 -58
q70 0 152 33q95 45 148.5 134t55.5 197z" />
    <glyph glyph-name="brokenbar" unicode="&#xa6;" horiz-adv-x="468" 
d="M129 389h211v-780h-211v780zM129 631v780h211v-780h-211z" />
    <glyph glyph-name="section" unicode="&#xa7;" horiz-adv-x="1236" 
d="M1057 1090l-258 2q-1 18 -4 35.5t-14 42.5t-28 43t-48.5 31t-73.5 13q-71 0 -111 -36q-39 -33 -39 -88q0 -52 39 -89q28 -28 164 -96q286 -145 358 -203q121 -96 119 -237q0 -34 -7 -70.5t-38 -91.5t-84 -92q-15 -11 -32 -20t-31 -15t-17 -8q42 -36 66 -71t35 -85
q8 -33 8 -75q0 -129 -88 -226q-120 -133 -352 -133q-92 0 -167.5 21.5t-123 55t-81.5 79t-50 88t-23 86.5q-4 24 -4 74l258 -2q0 -24 12 -68q41 -111 183 -111q44 0 76.5 13t49 34.5t24 43t7.5 42.5q0 38 -20 70q-15 22 -44 45.5t-73 48.5t-72 39.5t-80 38.5t-57 27
q-111 52 -170 88q-26 16 -41 26.5t-47.5 40t-51 58.5t-34.5 76t-16 100q0 124 71 203q31 33 86 67q31 16 58 23q-17 18 -26 29.5t-26.5 39t-26.5 61t-9 72.5q0 95 51 173q31 47 78 82t89 51.5t92 26t74 11t46 1.5q33 0 65.5 -4t89.5 -18t111 -51.5t92 -94.5q52 -76 62 -166
q4 -28 4 -51zM539 471l264 -133q28 8 43 18q27 19 45 52t18 63q0 52 -38 84t-135 82q-15 8 -23 12l-281 144q-24 -4 -49 -23q-59 -46 -59 -111q0 -36 20 -63q18 -24 57 -48.5t115 -64.5q15 -8 23 -12z" />
    <glyph glyph-name="dieresis" unicode="&#xa8;" horiz-adv-x="598" 
d="M455 1442v-236h-271v236h271zM29 1442v-236h-271v236h271z" />
    <glyph glyph-name="copyright" unicode="&#xa9;" horiz-adv-x="1705" 
d="M1583 719q-7 -280 -180 -479q-102 -118 -246 -182t-303 -64q-156 0 -297.5 61.5t-245.5 175.5q-186 203 -186 494q0 264 166 467q28 32 58.5 61.5t84 67.5t112 65.5t140.5 46.5t170 19q247 0 434 -141q35 -26 68 -57.5t76.5 -87t74.5 -117t53 -149t21 -181.5zM1516 721
q0 227 -132 403q-24 32 -52 61.5t-77 68t-103.5 66t-132.5 47t-163 19.5q-223 0 -393 -126q-32 -23 -63 -51t-70.5 -78.5t-69 -106.5t-50 -135.5t-20.5 -165.5q0 -131 50 -252q75 -187 244 -299.5t372 -112.5q95 0 211 35q203 67 325 239.5t124 387.5zM1264 1044l-148 -139
q-58 61 -115.5 91t-132.5 30q-74 0 -139 -33q-74 -37 -112.5 -109.5t-38.5 -158.5q0 -131 82 -214t212 -83q141 0 244 115l148 -135q-162 -179 -398 -179q-218 0 -356.5 139t-138.5 357q0 180 100 311q24 32 54.5 60t78.5 59.5t116.5 50.5t147.5 19q78 0 144.5 -18
t116.5 -50.5t77 -56t58 -56.5z" />
    <glyph glyph-name="guillemotleft" unicode="&#xab;" horiz-adv-x="854" 
d="M389 942v-248l-184 -145l184 -141v-240l-321 250v268zM786 942v-248l-184 -145l184 -141v-240l-321 250v268z" />
    <glyph glyph-name="logicalnot" unicode="&#xac;" horiz-adv-x="1366" 
d="M1155 496h-1155v211h1366v-707h-211v496z" />
    <glyph glyph-name="registered" unicode="&#xae;" horiz-adv-x="1705" 
d="M1237 266h-223q-2 4 -6.5 13.5t-6.5 13.5q-9 21 -16.5 52t-10.5 49t-9 60.5t-7 49.5q-11 69 -22.5 96.5t-40.5 46.5q-23 13 -45.5 16t-79.5 5h-47v-402h-195v928h318q129 0 179 -11q90 -19 140 -79q56 -70 56 -156q0 -79 -54 -141q-32 -32 -57 -47q-15 -8 -68 -29
q41 -20 62 -41q19 -19 31.5 -49.5t17 -48.5t11 -62.5t7.5 -52.5q21 -131 66 -211zM723 823h119q75 0 112.5 12t55.5 46q16 26 16 57q0 24 -14 55q-14 25 -42 37t-46 13t-58 1h-143v-221zM1583 719q0 -42 -6 -87t-22 -110t-53.5 -136.5t-92.5 -135.5q-68 -80 -151.5 -135.5
t-163 -79.5t-135.5 -32.5t-105 -8.5q-249 0 -446 149q-34 27 -66 58t-73.5 85.5t-71.5 115t-51 146t-21 177.5q0 264 166 467q28 32 58.5 61.5t84 67.5t112 65.5t140.5 46.5t170 19q175 0 328 -76t258 -217q144 -194 141 -440zM1518 721q0 223 -129 399q-24 32 -52 62
t-78 69t-105 67t-134 48t-164 20q-223 0 -393 -126q-32 -23 -63 -51t-70.5 -78.5t-69 -106.5t-50 -135.5t-20.5 -165.5q0 -131 50 -252q75 -187 244 -299.5t372 -112.5q112 0 223 39q198 70 317.5 241t121.5 382z" />
    <glyph glyph-name="degree" unicode="&#xb0;" horiz-adv-x="724" 
d="M362 1546q148 -1 250.5 -104.5t102.5 -249.5t-103.5 -249t-249.5 -103q-147 0 -249.5 104t-102.5 250q0 147 102.5 249.5t249.5 102.5zM362 1337q-61 0 -104 -42.5t-43 -102.5q2 -62 44.5 -105t102.5 -43q61 0 104.5 44t43.5 104t-44 102.5t-104 42.5z" />
    <glyph glyph-name="plusminus" unicode="&#xb1;" horiz-adv-x="1024" 
d="M961 0h-895v211h895v-211zM621 354h-211v344h-344v209h344v344h211v-344h340v-209h-340v-344z" />
    <glyph glyph-name="acute" unicode="&#xb4;" horiz-adv-x="598" 
d="M467 1466l-303 -290h-199l182 290h320z" />
    <glyph glyph-name="mu" unicode="&#xb5;" horiz-adv-x="1150" 
d="M1028 291l66 2q30 -69 30 -146q0 -73 -37 -121.5t-108 -48.5q-82 0 -139 76q-30 41 -41 86q-34 -52 -78 -88t-87.5 -52.5t-76 -23t-61.5 -6.5q-82 0 -150 45q-36 24 -55 45q-7 7 -23 27q-7 -76 1 -144.5t30.5 -123.5t38.5 -85.5t41 -68.5q28 -44 37.5 -65.5t9.5 -44.5
q-1 -39 -29.5 -65t-66.5 -26q-27 0 -60 17q-46 25 -73 100q-45 110 -45 324q0 201 24 354q-18 91 -29 210t-13.5 186.5t-2.5 107.5q0 84 19 129q5 11 14 23.5t31 27t49 14.5q31 0 53 -20q47 -41 47 -131q0 -56 -25 -268.5t-38 -284.5q33 -65 45 -82q60 -82 151 -82
q38 0 83.5 24t82.5 81q67 103 78 290q4 43 4 133q0 8 -1 47.5t-0.5 68t2.5 67t8 68t16 46.5q27 43 81 43q44 0 68 -24q27 -24 38 -67t11 -117q0 -134 -20 -254t-43 -185q-15 -46 -39 -88q33 -100 102 -100q32 0 52 21.5t26 47.5t6 56q0 29 -4 45z" />
    <glyph glyph-name="paragraph" unicode="&#xb6;" horiz-adv-x="1366" 
d="M1122 1446v-135h-71v-1653h-144v1653h-270v-1653h-143l-2 969q-83 19 -127 43q-33 18 -62 44t-60.5 67.5t-50 103.5t-18.5 137q0 72 19 135q26 93 89.5 161.5t153.5 100.5q78 27 197 27h489z" />
    <glyph glyph-name="periodcentered" unicode="&#xb7;" horiz-adv-x="555" 
d="M279 793q71 0 121.5 -51.5t50.5 -123.5q-2 -71 -52.5 -121.5t-122.5 -50.5q-72 2 -122 52.5t-50 122.5q0 71 51.5 121.5t123.5 50.5z" />
    <glyph glyph-name="cedilla" unicode="&#xb8;" horiz-adv-x="598" 
d="M203 6l-84 -131q45 10 78 10q49 0 86 -14.5t56.5 -38t28.5 -48t9 -48.5q0 -52 -35 -94q-65 -88 -217 -88q-110 0 -229 47l41 84q93 -35 157 -35q53 0 79 23t26 55q-1 35 -30 54t-65 19q-30 0 -77 -14l-41 39l120 180h97z" />
    <glyph glyph-name="guillemotright" unicode="&#xbb;" horiz-adv-x="854" 
d="M465 942l321 -256v-268l-321 -250v240l184 141l-184 145v248zM68 942l321 -256v-268l-321 -250v240l184 141l-184 145v248z" />
    <glyph glyph-name="questiondown" unicode="&#xbf;" horiz-adv-x="1110" 
d="M430 1012h270q-5 -124 -6 -129q-5 -51 -17 -89.5t-34 -68t-34 -42t-41 -36.5q-6 -5 -9 -8q-13 -10 -36.5 -30.5t-35.5 -30.5q-48 -39 -59 -52q-59 -66 -59 -149q0 -38 14 -66q16 -36 55 -65t105 -29q59 0 102 22t63.5 50t32.5 68.5t13.5 62.5t1.5 47h295q0 -127 -52 -238
q-16 -35 -39 -68t-62.5 -69t-87.5 -62.5t-118 -43.5t-151 -17q-249 0 -385 150q-99 115 -99 268q0 95 35 161.5t111 133.5q53 43 76 59q9 6 28.5 20.5t27 20t22 18.5t22 23t17 26t16.5 34q6 15 9.5 27t5 25.5t2 21.5t1 26.5t0.5 28.5zM410 1137v309h315v-309h-315z" />
    <glyph glyph-name="Agrave" unicode="&#xc0;" horiz-adv-x="1409" 
d="M868 1446l549 -1446h-332l-114 324h-537l-119 -324h-325l551 1446h327zM893 553l-188 569l-195 -569h383zM657 1829l191 -291h-205l-309 291h323z" />
    <glyph glyph-name="Aacute" unicode="&#xc1;" horiz-adv-x="1409" 
d="M868 1446l549 -1446h-332l-114 324h-537l-119 -324h-325l551 1446h327zM893 553l-188 569l-195 -569h383zM1065 1829l-303 -291h-201l184 291h320z" />
    <glyph glyph-name="Acircumflex" unicode="&#xc2;" horiz-adv-x="1409" 
d="M868 1446l549 -1446h-332l-114 324h-537l-119 -324h-325l551 1446h327zM893 553l-188 569l-195 -569h383zM1063 1538h-232l-129 174l-131 -174h-221l225 291h263z" />
    <glyph glyph-name="Atilde" unicode="&#xc3;" horiz-adv-x="1409" 
d="M868 1446l549 -1446h-332l-114 324h-537l-119 -324h-325l551 1446h327zM893 553l-188 569l-195 -569h383zM463 1552h-125q6 49 22 93q9 22 21.5 42.5t37.5 50.5t65.5 48t90.5 18q66 0 154 -37q41 -18 56 -24t35.5 -11.5t37.5 -5.5q26 0 45.5 9t30.5 26.5t14.5 25.5
t7.5 23h125q-6 -65 -34 -118q-59 -127 -191 -127q-66 0 -197 47q-63 26 -102 26q-69 0 -94 -86z" />
    <glyph glyph-name="Adieresis" unicode="&#xc4;" horiz-adv-x="1409" 
d="M1059 1802v-231h-271v231h271zM621 1802v-231h-273v231h273zM868 1446l549 -1446h-332l-114 324h-537l-119 -324h-325l551 1446h327zM893 553l-188 569l-195 -569h383z" />
    <glyph glyph-name="Aring" unicode="&#xc5;" horiz-adv-x="1409" 
d="M705 2013q101 0 173 -72.5t72 -175.5q0 -101 -72.5 -173t-175.5 -72q-101 0 -173 72t-72 175q0 101 73.5 173.5t174.5 72.5zM702 1894q-53 0 -90 -37.5t-37 -91.5t38 -91.5t92 -37.5q23 0 53 13q76 38 76 118q0 54 -39 90.5t-93 36.5zM868 1446l549 -1446h-332l-114 324
h-537l-119 -324h-325l551 1446h327zM893 553l-188 569l-195 -569h383z" />
    <glyph glyph-name="AE" unicode="&#xc6;" horiz-adv-x="2048" 
d="M1972 1446v-258h-733v-318h692v-247h-692v-357h752v-266h-1055v313h-459l-147 -313h-340l694 1446h1288zM936 545v647h-68l-293 -647h361z" />
    <glyph glyph-name="Ccedilla" unicode="&#xc7;" horiz-adv-x="1449" 
d="M1386 963h-311q-14 58 -31 90q-14 27 -34 52t-53.5 51.5t-84 42t-112.5 15.5q-76 0 -138 -25t-100.5 -61.5t-67 -89t-42 -97t-21.5 -96t-9 -75.5t-1 -45q0 -27 1 -50t10 -82t25 -106t51.5 -102t84.5 -90q86 -64 203 -64q106 0 184 54q119 78 141 274l316 -2
q-11 -202 -129 -358q-176 -236 -516 -236q-259 0 -433 146q-70 58 -121.5 135.5t-77 144t-40 143t-17 117t-2.5 80.5q0 255 129 453q196 301 576 301q248 0 416 -140q73 -60 121 -133q47 -75 71 -161q6 -29 12 -86zM823 6l-86 -131q45 10 78 10q49 0 86 -14.5t56.5 -38
t28.5 -48t9 -48.5q0 -46 -32 -94q-67 -88 -220 -88q-108 0 -229 47l41 84q93 -35 158 -35q53 0 78.5 23t25.5 55q-1 36 -29.5 54.5t-64.5 18.5q-31 0 -78 -14l-41 39l121 180h98z" />
    <glyph glyph-name="Egrave" unicode="&#xc8;" horiz-adv-x="1280" 
d="M1208 1446v-258h-776v-318h713v-247h-713v-357h791v-266h-1104v1446h1089zM594 1829l190 -291h-204l-310 291h324z" />
    <glyph glyph-name="Eacute" unicode="&#xc9;" horiz-adv-x="1280" 
d="M1208 1446v-258h-776v-318h713v-247h-713v-357h791v-266h-1104v1446h1089zM1001 1829l-303 -291h-200l182 291h321z" />
    <glyph glyph-name="Ecircumflex" unicode="&#xca;" horiz-adv-x="1280" 
d="M1208 1446v-258h-776v-318h713v-247h-713v-357h791v-266h-1104v1446h1089zM999 1538h-233l-127 174l-131 -174h-223l227 291h262z" />
    <glyph glyph-name="Edieresis" unicode="&#xcb;" horiz-adv-x="1280" 
d="M1208 1446v-258h-776v-318h713v-247h-713v-357h791v-266h-1104v1446h1089zM995 1802v-231h-270v231h270zM555 1802v-231h-270v231h270z" />
    <glyph glyph-name="Igrave" unicode="&#xcc;" horiz-adv-x="555" 
d="M436 1446v-1446h-317v1446h317zM231 1829l191 -291h-205l-309 291h323z" />
    <glyph glyph-name="Iacute" unicode="&#xcd;" horiz-adv-x="555" 
d="M436 1446v-1446h-317v1446h317zM637 1829l-301 -291h-201l182 291h320z" />
    <glyph glyph-name="Icircumflex" unicode="&#xce;" horiz-adv-x="555" 
d="M436 1446v-1446h-317v1446h317zM637 1538h-234l-127 174l-131 -174h-223l228 291h262z" />
    <glyph glyph-name="Idieresis" unicode="&#xcf;" horiz-adv-x="555" 
d="M436 1446v-1446h-317v1446h317zM633 1802v-231h-271v231h271zM193 1802v-231h-271v231h271z" />
    <glyph glyph-name="Ntilde" unicode="&#xd1;" horiz-adv-x="1449" 
d="M1331 1446v-1446h-315l-598 997l6 -997h-305v1446h321l592 -991l-6 991h305zM483 1552h-125q6 46 25 93q7 20 20 42t37.5 51t65.5 47.5t90 18.5q68 0 154 -37q41 -18 56 -24t35.5 -11.5t37.5 -5.5q14 0 26 3t20.5 7t16.5 11.5t12.5 13t9.5 14.5t6.5 13.5t5 12.5t3.5 9
h123q-5 -58 -33 -118q-11 -22 -22 -37.5t-33.5 -39.5t-57.5 -37t-79 -13q-64 0 -195 47l-8 2q-7 3 -18.5 7t-24 8t-27 6.5t-24.5 2.5q-15 0 -27.5 -4t-22 -11t-17 -14t-13 -17.5t-8.5 -16.5t-6 -15z" />
    <glyph glyph-name="Ograve" unicode="&#xd2;" horiz-adv-x="1536" 
d="M774 1483q284 0 473 -178q41 -38 76.5 -85.5t72 -118.5t58 -168.5t21.5 -209.5q0 -43 -3 -85t-19 -120t-44 -145.5t-85.5 -145.5t-135.5 -135q-175 -129 -418 -129q-163 0 -299 60q-56 25 -107 59.5t-108.5 94.5t-98.5 133t-68.5 180.5t-27.5 232.5q0 190 62 340
q82 201 256 311.5t395 108.5zM770 1223q-92 0 -166 -39q-46 -24 -82.5 -60t-59 -72t-39 -81.5t-24 -78.5t-11.5 -73.5t-4.5 -56t-0.5 -35.5q0 -227 94 -356q16 -22 39 -44t59.5 -46.5t88.5 -40t110 -15.5q112 0 201 62q37 26 67 63t48 72t31.5 79.5t19 74.5t9 69.5t3.5 51.5
v32q0 122 -35.5 231.5t-116.5 178.5q-92 82 -231 84zM721 1829l192 -291h-204l-310 291h322z" />
    <glyph glyph-name="Oacute" unicode="&#xd3;" horiz-adv-x="1536" 
d="M774 1483q284 0 473 -178q41 -38 76.5 -85.5t72 -118.5t58 -168.5t21.5 -209.5q0 -43 -3 -85t-19 -120t-44 -145.5t-85.5 -145.5t-135.5 -135q-175 -129 -418 -129q-163 0 -299 60q-56 25 -107 59.5t-108.5 94.5t-98.5 133t-68.5 180.5t-27.5 232.5q0 190 62 340
q82 201 256 311.5t395 108.5zM770 1223q-92 0 -166 -39q-46 -24 -82.5 -60t-59 -72t-39 -81.5t-24 -78.5t-11.5 -73.5t-4.5 -56t-0.5 -35.5q0 -227 94 -356q16 -22 39 -44t59.5 -46.5t88.5 -40t110 -15.5q112 0 201 62q37 26 67 63t48 72t31.5 79.5t19 74.5t9 69.5t3.5 51.5
v32q0 122 -35.5 231.5t-116.5 178.5q-92 82 -231 84zM1128 1829l-303 -291h-198l182 291h319z" />
    <glyph glyph-name="Ocircumflex" unicode="&#xd4;" horiz-adv-x="1536" 
d="M774 1483q284 0 473 -178q41 -38 76.5 -85.5t72 -118.5t58 -168.5t21.5 -209.5q0 -43 -3 -85t-19 -120t-44 -145.5t-85.5 -145.5t-135.5 -135q-175 -129 -418 -129q-163 0 -299 60q-56 25 -107 59.5t-108.5 94.5t-98.5 133t-68.5 180.5t-27.5 232.5q0 190 62 340
q82 201 256 311.5t395 108.5zM770 1223q-92 0 -166 -39q-46 -24 -82.5 -60t-59 -72t-39 -81.5t-24 -78.5t-11.5 -73.5t-4.5 -56t-0.5 -35.5q0 -227 94 -356q16 -22 39 -44t59.5 -46.5t88.5 -40t110 -15.5q112 0 201 62q37 26 67 63t48 72t31.5 79.5t19 74.5t9 69.5t3.5 51.5
v32q0 122 -35.5 231.5t-116.5 178.5q-92 82 -231 84zM1126 1538h-231l-129 174l-131 -174h-221l225 291h264z" />
    <glyph glyph-name="Otilde" unicode="&#xd5;" horiz-adv-x="1536" 
d="M774 1483q284 0 473 -178q41 -38 76.5 -85.5t72 -118.5t58 -168.5t21.5 -209.5q0 -43 -3 -85t-19 -120t-44 -145.5t-85.5 -145.5t-135.5 -135q-175 -129 -418 -129q-163 0 -299 60q-56 25 -107 59.5t-108.5 94.5t-98.5 133t-68.5 180.5t-27.5 232.5q0 190 62 340
q82 201 256 311.5t395 108.5zM770 1223q-92 0 -166 -39q-46 -24 -82.5 -60t-59 -72t-39 -81.5t-24 -78.5t-11.5 -73.5t-4.5 -56t-0.5 -35.5q0 -227 94 -356q16 -22 39 -44t59.5 -46.5t88.5 -40t110 -15.5q112 0 201 62q37 26 67 63t48 72t31.5 79.5t19 74.5t9 69.5t3.5 51.5
v32q0 122 -35.5 231.5t-116.5 178.5q-92 82 -231 84zM526 1552h-125q6 46 25 93q7 21 20 42.5t37.5 50.5t65 47.5t90.5 18.5q66 0 154 -37q41 -18 56 -24t35.5 -11.5t37.5 -5.5q26 0 45.5 9t30.5 26.5t14.5 25.5t7.5 23h125q-5 -58 -33 -118q-11 -22 -22 -37.5t-33.5 -39.5
t-57.5 -37t-79 -13q-64 0 -195 47l-7 2q-8 3 -19.5 7t-24 8t-27 6.5t-24.5 2.5q-15 0 -27.5 -4t-22 -11t-17 -14t-13 -17.5t-8.5 -16.5t-6 -15z" />
    <glyph glyph-name="Odieresis" unicode="&#xd6;" horiz-adv-x="1536" 
d="M1122 1802v-231h-270v231h270zM684 1802v-231h-270v231h270zM774 1483q284 0 473 -178q41 -38 76.5 -85.5t72 -118.5t58 -168.5t21.5 -209.5q0 -43 -3 -85t-19 -120t-44 -145.5t-85.5 -145.5t-135.5 -135q-175 -129 -418 -129q-163 0 -299 60q-56 25 -107 59.5
t-108.5 94.5t-98.5 133t-68.5 180.5t-27.5 232.5q0 190 62 340q82 201 256 311.5t395 108.5zM770 1223q-92 0 -166 -39q-46 -24 -82.5 -60t-59 -72t-39 -81.5t-24 -78.5t-11.5 -73.5t-4.5 -56t-0.5 -35.5q0 -227 94 -356q16 -22 39 -44t59.5 -46.5t88.5 -40t110 -15.5
q112 0 201 62q37 26 67 63t48 72t31.5 79.5t19 74.5t9 69.5t3.5 51.5v32q0 122 -35.5 231.5t-116.5 178.5q-92 82 -231 84z" />
    <glyph glyph-name="multiply" unicode="&#xd7;" horiz-adv-x="1024" 
d="M932 328l-152 -152l-268 270l-268 -270l-152 152l266 270l-266 270l152 152l268 -270l268 270l152 -152l-270 -270z" />
    <glyph glyph-name="Oslash" unicode="&#xd8;" horiz-adv-x="1536" 
d="M313 121l-163 -184l-99 88l170 190q-160 207 -160 508q0 162 45 297q74 219 252.5 341t411.5 122q230 0 397 -115q10 -6 52 -37l159 180l101 -88l-168 -188q164 -207 164 -512t-160 -508q-34 -43 -76 -81t-108.5 -80t-159.5 -66.5t-201 -24.5q-211 0 -375 98
q-28 17 -82 60zM1102 1001l-594 -667q106 -109 266 -109q120 0 211 70q48 36 82.5 91.5t50.5 102t24.5 105t9.5 81.5t1 50q0 163 -51 276zM432 453l594 665q-17 17 -37 33q-94 72 -219 72q-106 0 -192 -56q-46 -29 -82 -70.5t-55.5 -88t-32.5 -87t-18 -85.5t-6 -65t-1 -42
q0 -154 49 -276z" />
    <glyph glyph-name="Ugrave" unicode="&#xd9;" horiz-adv-x="1449" 
d="M1335 1446v-852q0 -72 -2 -109q-12 -209 -119 -338q-70 -85 -184 -134.5t-303 -49.5q-290 0 -444 135q-96 90 -131 199q-20 60 -28 121.5t-9 179.5v848h315v-871q0 -84 8 -126q6 -35 16 -63.5t32 -59t53 -51.5t81.5 -34.5t114.5 -13.5q109 0 176 43q31 20 52 49.5
t31.5 55.5t16.5 68.5t7 65t2 69.5v868h315zM680 1829l190 -291h-204l-310 291h324z" />
    <glyph glyph-name="Uacute" unicode="&#xda;" horiz-adv-x="1449" 
d="M1335 1446v-852q0 -72 -2 -109q-12 -209 -119 -338q-70 -85 -184 -134.5t-303 -49.5q-290 0 -444 135q-96 90 -131 199q-20 60 -28 121.5t-9 179.5v848h315v-871q0 -84 8 -126q6 -35 16 -63.5t32 -59t53 -51.5t81.5 -34.5t114.5 -13.5q109 0 176 43q31 20 52 49.5
t31.5 55.5t16.5 68.5t7 65t2 69.5v868h315zM1085 1829l-303 -291h-198l182 291h319z" />
    <glyph glyph-name="Ucircumflex" unicode="&#xdb;" horiz-adv-x="1449" 
d="M1335 1446v-852q0 -72 -2 -109q-12 -209 -119 -338q-70 -85 -184 -134.5t-303 -49.5q-290 0 -444 135q-96 90 -131 199q-20 60 -28 121.5t-9 179.5v848h315v-871q0 -84 8 -126q6 -35 16 -63.5t32 -59t53 -51.5t81.5 -34.5t114.5 -13.5q109 0 176 43q31 20 52 49.5
t31.5 55.5t16.5 68.5t7 65t2 69.5v868h315zM1085 1538h-233l-129 174l-131 -174h-221l227 291h262z" />
    <glyph glyph-name="Udieresis" unicode="&#xdc;" horiz-adv-x="1449" 
d="M1079 1802v-231h-268v231h268zM641 1802v-231h-270v231h270zM1335 1446v-852q0 -72 -2 -109q-12 -209 -119 -338q-70 -85 -184 -134.5t-303 -49.5q-290 0 -444 135q-96 90 -131 199q-20 60 -28 121.5t-9 179.5v848h315v-871q0 -84 8 -126q6 -35 16 -63.5t32 -59t53 -51.5
t81.5 -34.5t114.5 -13.5q109 0 176 43q31 20 52 49.5t31.5 55.5t16.5 68.5t7 65t2 69.5v868h315z" />
    <glyph glyph-name="germandbls" unicode="&#xdf;" 
d="M518 698l2 183q180 -13 238 90q22 44 22 94q-1 81 -55.5 126.5t-134.5 45.5q-68 0 -115 -31q-49 -31 -63.5 -82.5t-12.5 -162.5v-961h-286v897v31v33t0.5 31t1 33.5t1.5 31t3 33.5t5 30t6.5 32t8.5 30q30 98 104 163.5t163.5 92t193.5 26.5q87 0 161.5 -20t124.5 -52.5
t83 -68t51 -72.5q37 -74 37 -166q0 -38 -15 -92q-7 -25 -19.5 -51t-45 -64t-76.5 -61q-4 -2 -33 -14q64 -12 109 -43q60 -39 107 -117.5t46 -200.5q0 -91 -26 -170q-56 -144 -180 -223q-103 -69 -273 -69q-51 0 -133 12l2 223q36 -6 74 -6q68 0 113 20q51 22 92 78.5
t41 149.5q0 98 -49 159q-20 25 -47.5 41.5t-48 24.5t-60.5 12t-54.5 4h-62.5z" />
    <glyph glyph-name="agrave" unicode="&#xe0;" horiz-adv-x="1150" 
d="M1077 0h-293q-18 60 -18 100q-136 -131 -346 -131q-86 0 -152.5 21.5t-105.5 54.5t-64 77t-34 84.5t-9 82.5q0 28 5 57t20 69t50.5 77.5t88.5 62.5q27 13 58.5 23t72.5 17.5t63.5 11.5t74 10.5t61.5 7.5q162 23 194 53q9 8 14.5 24.5t7 26.5t1.5 14q-2 144 -188 144
q-58 0 -107 -17q-83 -31 -97 -140q-1 -3 -1 -5l-273 2q9 123 78 205q58 70 154.5 108.5t255.5 38.5q148 0 252 -37q65 -22 114 -65q45 -38 68 -84q25 -61 25 -170q0 -36 -2.5 -108.5t-2.5 -108.5q-4 -152 -4 -225q0 -114 8 -172t31 -109zM762 393v117q-18 -11 -31 -16
q-13 -6 -26 -10t-34.5 -8.5t-33 -6.5t-47 -7.5t-51.5 -8.5q-2 0 -20 -3.5t-44.5 -10.5t-42.5 -13q-82 -39 -82 -127q0 -23 7 -45.5t23.5 -45t50 -36.5t79.5 -14q119 0 192 73q29 29 46 60q14 35 14 102zM530 1466l191 -290h-205l-309 290h323z" />
    <glyph glyph-name="aacute" unicode="&#xe1;" horiz-adv-x="1150" 
d="M1077 0h-293q-18 60 -18 100q-136 -131 -346 -131q-86 0 -152.5 21.5t-105.5 54.5t-64 77t-34 84.5t-9 82.5q0 28 5 57t20 69t50.5 77.5t88.5 62.5q27 13 58.5 23t72.5 17.5t63.5 11.5t74 10.5t61.5 7.5q162 23 194 53q9 8 14.5 24.5t7 26.5t1.5 14q-2 144 -188 144
q-58 0 -107 -17q-83 -31 -97 -140q-1 -3 -1 -5l-273 2q9 123 78 205q58 70 154.5 108.5t255.5 38.5q148 0 252 -37q65 -22 114 -65q45 -38 68 -84q25 -61 25 -170q0 -36 -2.5 -108.5t-2.5 -108.5q-4 -152 -4 -225q0 -114 8 -172t31 -109zM762 393v117q-18 -11 -31 -16
q-13 -6 -26 -10t-34.5 -8.5t-33 -6.5t-47 -7.5t-51.5 -8.5q-2 0 -20 -3.5t-44.5 -10.5t-42.5 -13q-82 -39 -82 -127q0 -23 7 -45.5t23.5 -45t50 -36.5t79.5 -14q119 0 192 73q29 29 46 60q14 35 14 102zM936 1466l-301 -290h-201l182 290h320z" />
    <glyph glyph-name="acircumflex" unicode="&#xe2;" horiz-adv-x="1150" 
d="M1077 0h-293q-18 60 -18 100q-136 -131 -346 -131q-86 0 -152.5 21.5t-105.5 54.5t-64 77t-34 84.5t-9 82.5q0 28 5 57t20 69t50.5 77.5t88.5 62.5q27 13 58.5 23t72.5 17.5t63.5 11.5t74 10.5t61.5 7.5q162 23 194 53q9 8 14.5 24.5t7 26.5t1.5 14q-2 144 -188 144
q-58 0 -107 -17q-83 -31 -97 -140q-1 -3 -1 -5l-273 2q9 123 78 205q58 70 154.5 108.5t255.5 38.5q148 0 252 -37q65 -22 114 -65q45 -38 68 -84q25 -61 25 -170q0 -36 -2.5 -108.5t-2.5 -108.5q-4 -152 -4 -225q0 -114 8 -172t31 -109zM762 393v117q-18 -11 -31 -16
q-13 -6 -26 -10t-34.5 -8.5t-33 -6.5t-47 -7.5t-51.5 -8.5q-2 0 -20 -3.5t-44.5 -10.5t-42.5 -13q-82 -39 -82 -127q0 -23 7 -45.5t23.5 -45t50 -36.5t79.5 -14q119 0 192 73q29 29 46 60q14 35 14 102zM938 1176h-231l-129 174l-132 -174h-221l226 290h262z" />
    <glyph glyph-name="atilde" unicode="&#xe3;" horiz-adv-x="1150" 
d="M1077 0h-293q-18 60 -18 100q-136 -131 -346 -131q-86 0 -152.5 21.5t-105.5 54.5t-64 77t-34 84.5t-9 82.5q0 28 5 57t20 69t50.5 77.5t88.5 62.5q27 13 58.5 23t72.5 17.5t63.5 11.5t74 10.5t61.5 7.5q162 23 194 53q9 8 14.5 24.5t7 26.5t1.5 14q-2 144 -188 144
q-58 0 -107 -17q-83 -31 -97 -140q-1 -3 -1 -5l-273 2q9 123 78 205q58 70 154.5 108.5t255.5 38.5q148 0 252 -37q65 -22 114 -65q45 -38 68 -84q25 -61 25 -170q0 -36 -2.5 -108.5t-2.5 -108.5q-4 -152 -4 -225q0 -114 8 -172t31 -109zM762 393v117q-18 -11 -31 -16
q-13 -6 -26 -10t-34.5 -8.5t-33 -6.5t-47 -7.5t-51.5 -8.5q-2 0 -20 -3.5t-44.5 -10.5t-42.5 -13q-82 -39 -82 -127q0 -23 7 -45.5t23.5 -45t50 -36.5t79.5 -14q119 0 192 73q29 29 46 60q14 35 14 102zM332 1190l-127 2q12 71 38 122t60 78.5t69 39.5t72 12q67 0 154 -39
q91 -39 127 -39q26 0 45 8q20 9 30.5 24t24.5 52h125q-6 -74 -43 -139q-13 -20 -24 -33t-33 -33t-54 -30.5t-71 -10.5q-61 0 -195 45q-70 27 -104 27q-72 0 -94 -86z" />
    <glyph glyph-name="adieresis" unicode="&#xe4;" horiz-adv-x="1150" 
d="M924 1442v-236h-271v236h271zM498 1442v-236h-269v236h269zM1077 0h-293q-18 60 -18 100q-38 -35 -75 -60t-111 -48t-162 -23q-223 0 -316 137q-51 80 -51 183q0 175 150 260q28 15 60.5 26t80 20t68.5 12.5t81.5 11.5t63.5 8q75 7 139 26q18 5 24.5 7.5t21 12t20.5 27
t6 43.5q-2 67 -44 105.5t-147 38.5q-68 0 -114 -19q-84 -34 -92 -143l-273 2q6 118 76 205q60 70 157 108.5t257 38.5q250 0 370 -104q41 -33 62 -76q29 -57 29 -176q0 -36 -2.5 -108.5t-2.5 -108.5q-4 -152 -4 -225q0 -114 8 -172t31 -109zM762 393v117q-18 -11 -31 -16
q-20 -9 -43 -15t-41.5 -9t-57.5 -9t-71 -12q-2 0 -17 -3t-36 -9t-35 -11q-84 -37 -84 -127q0 -23 7 -45.5t23.5 -45t50.5 -36.5t81 -14q94 0 156 42.5t81 90.5q14 27 17 102z" />
    <glyph glyph-name="aring" unicode="&#xe5;" horiz-adv-x="1150" 
d="M575 1651q101 0 173.5 -72.5t72.5 -173.5q0 -103 -72.5 -175.5t-173.5 -72.5q-102 0 -174.5 73t-72.5 175q0 101 73 173.5t174 72.5zM575 1534q-54 0 -92.5 -38t-36.5 -91q0 -54 37.5 -91.5t91.5 -37.5q31 0 54 10q15 8 29.5 19t30.5 38.5t16 61.5q0 54 -38.5 91.5
t-91.5 37.5zM1077 0h-293q-18 60 -18 100q-38 -35 -75 -60t-111 -48t-162 -23q-223 0 -316 137q-51 80 -51 183q0 175 150 260q28 15 60.5 26t80 20t68.5 12.5t81.5 11.5t63.5 8q75 7 139 26q18 5 24.5 7.5t21 12t20.5 27t6 43.5q-2 67 -44 105.5t-147 38.5q-68 0 -114 -19
q-84 -34 -92 -143l-273 2q6 118 76 205q60 70 157 108.5t257 38.5q250 0 370 -104q41 -33 62 -76q29 -57 29 -176q0 -36 -2.5 -108.5t-2.5 -108.5q-4 -152 -4 -225q0 -114 8 -172t31 -109zM762 393v117q-18 -11 -31 -16q-20 -9 -43 -15t-41.5 -9t-57.5 -9t-71 -12
q-2 0 -17 -3t-36 -9t-35 -11q-84 -37 -84 -127q0 -23 7 -45.5t23.5 -45t50.5 -36.5t81 -14q94 0 156 42.5t81 90.5q14 27 17 102z" />
    <glyph glyph-name="ae" unicode="&#xe6;" horiz-adv-x="1835" 
d="M377 723h-277q3 32 6 50t14 59.5t36.5 78t64.5 66.5q67 52 166 77t197 25q230 0 334 -108q13 -13 22 -29q37 35 60.5 53t62.5 37q103 47 207 47q143 0 258 -63q60 -40 98 -80q69 -71 112.5 -172.5t43.5 -263.5v-43h-754q0 -164 96 -238q68 -47 146 -47q25 2 67 10
q37 10 66 28.5t47 43t26 38.5t17 36h272q-13 -51 -24 -76q-15 -35 -37.5 -69.5t-63 -74.5t-90 -69.5t-123 -49.5t-157.5 -20q-137 0 -252 64q-55 30 -86 61q-20 20 -43 53q-7 -11 -35 -38q-60 -60 -135 -93q-106 -47 -258 -47q-209 0 -314 92q-39 36 -63 89q-29 67 -29 137
q0 73 29 133q31 68 95.5 110.5t193.5 67.5q30 5 137.5 20t165.5 29q62 14 84 46q14 23 14 52q0 142 -190 142q-142 0 -187 -84q-7 -14 -11.5 -32t-6.5 -32.5t-2 -15.5zM1026 627h471q0 3 -1 16t-2.5 24t-5 28t-9.5 32q-26 70 -84.5 110t-132.5 40q-63 0 -119 -33
q-18 -10 -32.5 -22.5t-25.5 -27t-19.5 -27.5t-14.5 -29t-10 -27.5t-7 -27t-4 -22.5t-2.5 -20t-1.5 -14zM774 383l-2 127q-26 -20 -53.5 -30t-83.5 -19q-22 -4 -53 -8.5t-45.5 -6.5t-33.5 -5.5t-33.5 -7.5t-29.5 -9q-91 -38 -88 -125q0 -25 8 -48t25.5 -46.5t53.5 -37.5
t85 -15q73 2 137.5 34.5t92.5 92.5q8 18 12.5 40t5.5 43z" />
    <glyph glyph-name="ccedilla" unicode="&#xe7;" horiz-adv-x="1150" 
d="M1110 682h-283q-5 30 -14 51q-24 62 -79 95.5t-124 33.5q-51 0 -95 -17.5t-83 -55.5t-61.5 -107.5t-22.5 -163.5q0 -17 0.5 -32t5.5 -51t14 -64.5t28.5 -64t45.5 -59.5t68.5 -40.5t95.5 -16.5q98 0 158 57t74 154h278q-23 -159 -108 -260q-144 -172 -404 -172
q-207 0 -344 105q-35 26 -65.5 60t-64 87t-53.5 129t-20 164q0 134 45 246q16 40 39 78.5t65.5 84t95 78.5t132 55.5t172.5 22.5q94 -1 172.5 -22t131 -53t92.5 -76t61.5 -84.5t32.5 -83.5q9 -32 14 -78zM674 6l-86 -131q45 10 78 10q49 0 86 -14.5t56.5 -38t28.5 -48
t9 -48.5q0 -44 -33 -94q-67 -88 -219 -88q-108 0 -227 47l39 84q93 -35 157 -35q54 0 79.5 23t25.5 55q-1 35 -30 54t-65 19q-30 0 -77 -14l-41 39l120 180h99z" />
    <glyph glyph-name="egrave" unicode="&#xe8;" horiz-adv-x="1150" 
d="M1100 451h-750q0 -3 1.5 -20t4 -35t6.5 -34q7 -29 20 -56t38.5 -59t72.5 -51.5t109 -19.5q111 0 172 88q18 28 33 62h274q-17 -59 -30 -86q-39 -81 -107.5 -144.5t-152.5 -93.5q-87 -33 -197 -33q-126 0 -227 41q-100 42 -171.5 122.5t-104.5 179t-32 208.5
q0 154 64.5 280.5t186 202.5t276.5 76q170 0 297 -92q219 -161 217 -525v-11zM352 641h455q-8 67 -27 109q-28 60 -80.5 93.5t-115.5 33.5q-66 0 -121 -34.5t-84 -94.5q-20 -41 -27 -107zM530 1466l191 -290h-205l-309 290h323z" />
    <glyph glyph-name="eacute" unicode="&#xe9;" horiz-adv-x="1150" 
d="M1100 451h-750q0 -3 1.5 -20t4 -35t6.5 -34q7 -29 20 -56t38.5 -59t72.5 -51.5t109 -19.5q111 0 172 88q18 28 33 62h274q-17 -59 -30 -86q-39 -81 -107.5 -144.5t-152.5 -93.5q-87 -33 -197 -33q-126 0 -227 41q-100 42 -171.5 122.5t-104.5 179t-32 208.5
q0 154 64.5 280.5t186 202.5t276.5 76q170 0 297 -92q219 -161 217 -525v-11zM352 641h455q-8 67 -27 109q-28 60 -80.5 93.5t-115.5 33.5q-66 0 -121 -34.5t-84 -94.5q-20 -41 -27 -107zM936 1466l-301 -290h-201l182 290h320z" />
    <glyph glyph-name="ecircumflex" unicode="&#xea;" horiz-adv-x="1150" 
d="M1100 451h-750q0 -3 1.5 -20t4 -35t6.5 -34q7 -29 20 -56t38.5 -59t72.5 -51.5t109 -19.5q111 0 172 88q18 28 33 62h274q-17 -59 -30 -86q-39 -81 -107.5 -144.5t-152.5 -93.5q-87 -33 -197 -33q-126 0 -227 41q-100 42 -171.5 122.5t-104.5 179t-32 208.5
q0 154 64.5 280.5t186 202.5t276.5 76q170 0 297 -92q219 -161 217 -525v-11zM352 641h455q-8 67 -27 109q-28 60 -80.5 93.5t-115.5 33.5q-66 0 -121 -34.5t-84 -94.5q-20 -41 -27 -107zM938 1176h-231l-129 174l-132 -174h-221l226 290h262z" />
    <glyph glyph-name="edieresis" unicode="&#xeb;" horiz-adv-x="1150" 
d="M1100 451h-750q0 -3 1.5 -20t4 -35t6.5 -34q7 -29 20 -56t38.5 -59t72.5 -51.5t109 -19.5q111 0 172 88q18 28 33 62h274q-17 -59 -30 -86q-39 -81 -107.5 -144.5t-152.5 -93.5q-87 -33 -197 -33q-126 0 -227 41q-100 42 -171.5 122.5t-104.5 179t-32 208.5
q0 154 64.5 280.5t186 202.5t276.5 76q170 0 297 -92q219 -161 217 -525v-11zM352 641h455q-8 67 -27 109q-28 60 -80.5 93.5t-115.5 33.5q-66 0 -121 -34.5t-84 -94.5q-20 -41 -27 -107zM924 1442v-236h-271v236h271zM498 1442v-236h-271v236h271z" />
    <glyph glyph-name="igrave" unicode="&#xec;" horiz-adv-x="512" 
d="M399 1049v-1049h-286v1049h286zM209 1466l192 -290h-204l-310 290h322z" />
    <glyph glyph-name="iacute" unicode="&#xed;" horiz-adv-x="512" 
d="M399 1049v-1049h-286v1049h286zM616 1466l-303 -290h-198l182 290h319z" />
    <glyph glyph-name="icircumflex" unicode="&#xee;" horiz-adv-x="512" 
d="M399 1049v-1049h-286v1049h286zM618 1176h-233l-127 174l-131 -174h-221l225 290h262z" />
    <glyph glyph-name="idieresis" unicode="&#xef;" horiz-adv-x="512" 
d="M399 1049v-1049h-286v1049h286zM604 1442v-236h-270v236h270zM178 1442v-236h-270v236h270z" />
    <glyph glyph-name="ntilde" unicode="&#xf1;" 
d="M387 1049v-146q35 56 88 96q111 80 256 80q34 0 69.5 -6t89.5 -25t99.5 -66t69.5 -116q5 -14 8.5 -28t6 -30.5t4 -27.5t2.5 -31t1.5 -27t1 -31t0.5 -29v-662h-284v604q0 37 -1 56.5t-6 51t-19 55t-36 40.5q-50 35 -112 35q-125 0 -189 -94q-7 -10 -12.5 -20.5t-9 -23
t-6.5 -21t-5 -23.5t-3.5 -21.5t-2 -24t-1 -22.5t-1 -25t-0.5 -24v-543h-282v1049h274zM352 1190l-125 2q11 70 37 121.5t60.5 78.5t69 39.5t71.5 12.5q68 0 153 -39q91 -39 130 -39q27 0 43 8q20 9 32 24.5t25 51.5h123q-6 -74 -43 -139q-61 -107 -183 -107q-61 0 -192 45
q-74 27 -107 27q-11 0 -21.5 -2.5t-18 -7t-14.5 -9.5t-12 -12t-9 -12.5t-7.5 -13.5t-5 -12t-4 -10t-2.5 -7z" />
    <glyph glyph-name="ograve" unicode="&#xf2;" 
d="M596 1079q221 0 365 -125q176 -154 176 -428q0 -246 -146 -401q-151 -156 -391 -156q-122 0 -219 39q-107 42 -180.5 122t-107.5 180t-34 216q0 137 41 230q16 40 38 78t64 83.5t94 79.5t130.5 57.5t169.5 24.5zM596 860q-47 0 -89.5 -18t-79 -55.5t-58 -104.5
t-21.5 -156q0 -219 121 -303q56 -37 131 -37q70 0 129 39q117 82 117 305q0 201 -111 285q-60 45 -139 45zM551 1466l190 -290h-204l-310 290h324z" />
    <glyph glyph-name="oacute" unicode="&#xf3;" 
d="M596 1079q221 0 365 -125q176 -154 176 -428q0 -246 -146 -401q-151 -156 -391 -156q-122 0 -219 39q-107 42 -180.5 122t-107.5 180t-34 216q0 137 41 230q16 40 38 78t64 83.5t94 79.5t130.5 57.5t169.5 24.5zM596 860q-47 0 -89.5 -18t-79 -55.5t-58 -104.5
t-21.5 -156q0 -219 121 -303q56 -37 131 -37q70 0 129 39q117 82 117 305q0 201 -111 285q-60 45 -139 45zM958 1466l-303 -290h-200l182 290h321z" />
    <glyph glyph-name="ocircumflex" unicode="&#xf4;" 
d="M596 1079q221 0 365 -125q176 -154 176 -428q0 -246 -146 -401q-151 -156 -391 -156q-122 0 -219 39q-107 42 -180.5 122t-107.5 180t-34 216q0 137 41 230q16 40 38 78t64 83.5t94 79.5t130.5 57.5t169.5 24.5zM596 860q-47 0 -89.5 -18t-79 -55.5t-58 -104.5
t-21.5 -156q0 -219 121 -303q56 -37 131 -37q70 0 129 39q117 82 117 305q0 201 -111 285q-60 45 -139 45zM961 1176h-234l-129 174l-131 -174h-221l225 290h264z" />
    <glyph glyph-name="otilde" unicode="&#xf5;" 
d="M596 1079q221 0 365 -125q176 -154 176 -428q0 -246 -146 -401q-151 -156 -391 -156q-122 0 -219 39q-107 42 -180.5 122t-107.5 180t-34 216q0 137 41 230q16 40 38 78t64 83.5t94 79.5t130.5 57.5t169.5 24.5zM596 860q-47 0 -89.5 -18t-79 -55.5t-58 -104.5
t-21.5 -156q0 -219 121 -303q56 -37 131 -37q70 0 129 39q117 82 117 305q0 201 -111 285q-60 45 -139 45zM352 1190l-125 2q11 70 37 121.5t60.5 78.5t69 39.5t71.5 12.5q68 0 153 -39q91 -39 130 -39q27 0 43 8q20 9 32 24.5t25 51.5h123q-6 -74 -43 -139
q-61 -107 -183 -107q-61 0 -192 45q-74 27 -107 27q-11 0 -21.5 -2.5t-18 -7t-14.5 -9.5t-12 -12t-9 -12.5t-7.5 -13.5t-5 -12t-4 -10t-2.5 -7z" />
    <glyph glyph-name="odieresis" unicode="&#xf6;" 
d="M946 1442v-236h-270v236h270zM520 1442v-236h-270v236h270zM596 1079q221 0 365 -125q176 -154 176 -428q0 -246 -146 -401q-151 -156 -391 -156q-122 0 -219 39q-107 42 -180.5 122t-107.5 180t-34 216q0 137 41 230q16 40 38 78t64 83.5t94 79.5t130.5 57.5t169.5 24.5
zM596 860q-47 0 -89.5 -18t-79 -55.5t-58 -104.5t-21.5 -156q0 -219 121 -303q56 -37 131 -37q70 0 129 39q117 82 117 305q0 201 -111 285q-60 45 -139 45z" />
    <glyph glyph-name="divide" unicode="&#xf7;" horiz-adv-x="1024" 
d="M655 260q-2 -51 -44.5 -92t-96.5 -41q-51 0 -95 42t-44 93q0 56 45.5 100t99.5 41q52 -1 93.5 -45.5t41.5 -97.5zM1024 492h-1022v208h1022v-208zM655 930q0 -53 -43.5 -97.5t-97.5 -44.5q-51 0 -95 44t-44 96q0 53 43.5 96t97.5 43q51 0 94.5 -42.5t44.5 -94.5z" />
    <glyph glyph-name="oslash" unicode="&#xf8;" 
d="M268 70l-118 -138l-76 68l119 137q-29 33 -52 70q-82 133 -82 321q0 226 127 373q150 178 426 178q60 0 110 -8.5t91.5 -26.5t62 -29.5t54.5 -33.5l104 121l76 -68l-106 -123q133 -154 133 -385q0 -193 -90 -331q-24 -38 -58 -72.5t-87.5 -71.5t-132 -59.5t-169.5 -22.5
q-193 0 -332 101zM827 709l-401 -461q14 -17 27 -25q68 -49 147 -49q111 2 183.5 87t72.5 267q0 100 -29 181zM369 338l401 463q0 2 -10 11t-19 15q-20 15 -60 31t-85 16q-69 0 -127 -38q-129 -84 -129 -312q0 -98 29 -186z" />
    <glyph glyph-name="ugrave" unicode="&#xf9;" 
d="M1079 1049v-1049h-274v147q-39 -53 -62 -73q-110 -105 -274 -105q-24 0 -50.5 2.5t-71 15.5t-82 34t-75 63t-57.5 98q-24 69 -24 203v664h284v-580q1 -21 1 -50t0.5 -41t2.5 -28t6 -31q14 -43 53.5 -75.5t114.5 -32.5q83 0 138 45q21 17 36.5 36t25 45.5t14.5 41.5
t7.5 51.5t3 46t1.5 51.5v521h282zM551 1466l190 -290h-204l-310 290h324z" />
    <glyph glyph-name="uacute" unicode="&#xfa;" 
d="M1079 1049v-1049h-274v147q-39 -53 -62 -73q-110 -105 -274 -105q-24 0 -50.5 2.5t-71 15.5t-82 34t-75 63t-57.5 98q-24 69 -24 203v664h284v-580q1 -21 1 -50t0.5 -41t2.5 -28t6 -31q14 -43 53.5 -75.5t114.5 -32.5q83 0 138 45q21 17 36.5 36t25 45.5t14.5 41.5
t7.5 51.5t3 46t1.5 51.5v521h282zM958 1466l-303 -290h-200l182 290h321z" />
    <glyph glyph-name="ucircumflex" unicode="&#xfb;" 
d="M1079 1049v-1049h-274v147q-39 -53 -62 -73q-110 -105 -274 -105q-24 0 -50.5 2.5t-71 15.5t-82 34t-75 63t-57.5 98q-24 69 -24 203v664h284v-580q1 -21 1 -50t0.5 -41t2.5 -28t6 -31q14 -43 53.5 -75.5t114.5 -32.5q83 0 138 45q21 17 36.5 36t25 45.5t14.5 41.5
t7.5 51.5t3 46t1.5 51.5v521h282zM961 1176h-234l-129 174l-131 -174h-221l225 290h264z" />
    <glyph glyph-name="udieresis" unicode="&#xfc;" 
d="M946 1442v-236h-270v236h270zM520 1442v-236h-270v236h270zM1083 1049v-1049h-276v147q-32 -47 -62 -73q-105 -105 -272 -105q-33 0 -69.5 6t-91.5 25t-102.5 66t-72.5 116q-12 31 -17.5 69.5t-6 61t-0.5 72.5v664h282v-580q0 -16 0.5 -41.5t1 -35t1.5 -25t3.5 -26
t6.5 -22.5q14 -43 52.5 -75.5t112.5 -32.5q85 0 140 45q39 31 58.5 76.5t23 81.5t4.5 96v18v521h284z" />
    <glyph glyph-name="ydieresis" unicode="&#xff;" horiz-adv-x="1067" 
d="M1075 1049l-387 -1045q-39 -108 -63.5 -162.5t-55.5 -95.5q-34 -44 -74 -71.5t-85.5 -37t-64.5 -11t-58 -1.5l-191 2v238h115q53 0 80.5 8t48.5 29q37 33 37 94q0 22 -17 84l-368 969h311l240 -746l233 746h299zM881 1442v-236h-271v236h271zM455 1442v-236h-269v236h269
z" />
    <glyph glyph-name="dotlessi" unicode="&#x131;" horiz-adv-x="512" 
d="M399 1049v-1049h-286v1049h286z" />
    <glyph glyph-name="OE" unicode="&#x152;" horiz-adv-x="2174" 
d="M1087 1446h1016v-258h-723v-318h662v-249h-662v-353h738v-268h-1031l-2 106q-37 -37 -45 -43q-122 -100 -317 -100q-241 0 -422 160q-64 59 -111.5 133t-71.5 136.5t-37.5 132.5t-16.5 109.5t-3 78.5q0 177 58.5 332t179.5 268q114 105 248 143q88 27 192 27
q188 0 297 -84q28 -23 51 -51v98zM1081 608v248q0 58 -8 105q-3 26 -8 45.5t-17.5 52t-39 62.5t-64.5 53q-81 47 -174 47q-102 0 -195 -54q-83 -52 -139.5 -160.5t-56.5 -281.5q0 -106 29 -203q8 -29 20 -58.5t40.5 -74t65 -77.5t96.5 -57t132 -24q61 0 115 17
q61 20 108.5 66t69.5 106q22 58 26 188z" />
    <glyph glyph-name="oe" unicode="&#x153;" horiz-adv-x="1878" 
d="M1825 457l-762 -2q2 -123 69.5 -203t188.5 -80q31 0 58.5 8t46.5 16.5t37.5 26.5t27.5 27.5t21.5 32t14.5 26.5t11 23l277 -2q-47 -162 -175 -258q-132 -103 -319 -103q-181 0 -295 82q-57 43 -88 94q-23 -36 -66 -77q-118 -99 -301 -99q-122 0 -219 43q-40 18 -77 43
t-78 68.5t-70.5 97t-48.5 132t-19 169.5q0 116 31 211q15 42 35.5 82.5t62.5 90.5t94 86.5t133 61.5t177 25q143 0 250 -63q42 -28 69 -55q11 -11 25 -29l14 -19q26 32 51.5 55t69 51.5t104.5 44t134 15.5q88 0 163 -22t126 -58.5t82.5 -70t54.5 -70.5q90 -146 90 -401z
M1061 627h477q0 50 -18 98q-26 70 -85 109.5t-135 39.5q-72 0 -130.5 -39t-84.5 -106q-17 -38 -24 -102zM582 864q-112 -4 -168 -92q-64 -86 -64 -250q0 -213 105 -297q58 -43 131 -43q45 0 97 24t87 89q45 88 45 242q0 182 -80 266q-59 61 -153 61z" />
    <glyph glyph-name="Ydieresis" unicode="&#x178;" horiz-adv-x="1366" 
d="M1378 1446l-538 -889v-557h-314v561l-538 885h360l338 -610l340 610h352zM1036 1802v-231h-268v231h268zM598 1802v-231h-270v231h270z" />
    <glyph glyph-name="circumflex" unicode="&#x2c6;" horiz-adv-x="598" 
d="M469 1176h-233l-127 174l-132 -174h-221l226 290h262z" />
    <glyph glyph-name="caron" unicode="&#x2c7;" horiz-adv-x="598" 
d="M457 1466l-224 -290h-264l-227 290h229l131 -176l131 176h224z" />
    <glyph glyph-name="tilde" unicode="&#x2dc;" horiz-adv-x="598" 
d="M-137 1190l-127 2q23 135 90 193.5t147 58.5q69 0 156 -39q91 -39 127 -39q26 0 45 8q20 9 30.5 24t24.5 52h125q-9 -76 -45 -139q-61 -107 -180 -107q-61 0 -195 45q-71 27 -104 27q-73 0 -94 -86z" />
    <glyph glyph-name="endash" unicode="&#x2013;" 
d="M1116 684v-258h-1038v258h1038z" />
    <glyph glyph-name="emdash" unicode="&#x2014;" 
d="M49 727h1096v-213h-1096v213z" />
    <glyph glyph-name="quoteleft" unicode="&#x2018;" horiz-adv-x="512" 
d="M92 809v254q0 82 10 131q5 25 11 44t19 47.5t37.5 56.5t59.5 53q86 63 185 73v-143q-1 0 -13 -4t-24.5 -9.5t-24.5 -13.5q-79 -52 -84 -168h152v-321h-328z" />
    <glyph glyph-name="quoteright" unicode="&#x2019;" horiz-adv-x="512" 
d="M420 1446v-254q1 -98 -19.5 -166.5t-50.5 -104t-78 -67.5q-74 -51 -174 -68v146q38 10 64 24q60 42 78 119q0 2 2 20t2 31h-152v320h328z" />
    <glyph glyph-name="quotesinglbase" unicode="&#x201a;" horiz-adv-x="512" 
d="M420 322v-254q1 -143 -36 -216t-112 -124q-80 -55 -174 -66v143q36 9 64 27q60 42 78 119q0 2 2 19t2 30h-152v322h328z" />
    <glyph glyph-name="quotedblleft" unicode="&#x201c;" horiz-adv-x="894" 
d="M92 821v254q0 262 178 352q61 30 115 39l-2 -135q-38 -9 -66 -31q-11 -9 -20.5 -19t-16 -21t-11.5 -21.5t-9 -22.5t-6 -21t-3.5 -20.5t-2.5 -17t-1.5 -14.5t-0.5 -10h139v-312h-293zM512 821v254q0 254 166 346q55 31 125 45v-135q-94 -20 -125 -123q-10 -24 -12 -75h137
v-312h-291z" />
    <glyph glyph-name="quotedblright" unicode="&#x201d;" horiz-adv-x="894" 
d="M803 1446v-254v-31.5t-3 -43t-8 -55.5t-17.5 -56t-29.5 -60.5t-45 -53t-63 -46.5q-60 -34 -125 -45v135q35 8 55 22q19 12 40 38.5t32 66.5q7 19 10 72h-137v311h291zM385 1446v-254q-6 -75 -6 -78q-21 -202 -180 -278q-65 -28 -107 -35v135q39 9 64 27q73 54 73 172
h-137v311h293z" />
    <glyph glyph-name="quotedblbase" unicode="&#x201e;" horiz-adv-x="894" 
d="M803 311v-252v-32t-3 -42.5t-8 -56t-17.5 -57t-29.5 -60.5t-45 -53t-63 -47q-61 -34 -125 -43v133q94 20 127 123q8 25 10 76h-137v311h291zM385 311v-252q-4 -94 -20 -158t-64 -120q-30 -37 -86 -72q-65 -37 -123 -41v133q37 9 64.5 30t40.5 43.5t21 50.5t9.5 44t1.5 31
h-137v311h293z" />
    <glyph glyph-name="dagger" unicode="&#x2020;" horiz-adv-x="1067" 
d="M1051 1049v-248h-379v-1135h-281v1135h-375v248h375v397h281v-397h379z" />
    <glyph glyph-name="bullet" unicode="&#x2022;" horiz-adv-x="681" 
d="M633 721q0 -124 -80.5 -207.5t-204.5 -83.5q-125 0 -212 84t-87 209q0 59 27 119q12 25 30.5 49.5t50.5 54.5t81.5 49t107.5 19q66 0 123 -27q25 -12 49 -30t52 -49t45.5 -80t17.5 -107z" />
    <glyph glyph-name="ellipsis" unicode="&#x2026;" horiz-adv-x="2048" 
d="M1845 129q0 -59 -39.5 -100t-97.5 -41q-59 0 -99 39.5t-40 99.5t40 99.5t99 39.5q34 0 59 -12q37 -17 57.5 -50.5t20.5 -74.5zM1163 129q0 -59 -39 -100t-98 -41q-58 0 -99.5 40t-41.5 99t40.5 99t100.5 40q58 0 96.5 -39t40.5 -98zM481 129q0 -22 -10 -51
q-15 -41 -50 -65.5t-79 -24.5q-59 0 -99 39.5t-40 99.5t40.5 99.5t100.5 39.5q57 0 96.5 -39t40.5 -98z" />
    <glyph glyph-name="fraction" unicode="&#x2044;" horiz-adv-x="256" 
d="M655 1495l-907 -1544h-147l909 1544h145z" />
    <glyph glyph-name="trademark" unicode="&#x2122;" horiz-adv-x="1409" 
d="M1341 766h-141l4 393q0 59 10 137q-5 -20 -30 -112l-127 -418h-129l-131 420q-1 5 -13 45.5t-18 62.5q6 -46 10 -137l8 -391h-141v680h188l164 -514l156 514h190v-680zM377 766h-146v561h-215v119h570v-119h-209v-561z" />
    <glyph glyph-name="minus" unicode="&#x2212;" 
d="M49 727h1096v-213h-1096v213z" />
    <glyph glyph-name="Acute" unicode="&#xf6c9;" horiz-adv-x="598" 
d="M467 1829l-303 -291h-199l182 291h320z" />
    <glyph glyph-name="Caron" unicode="&#xf6ca;" horiz-adv-x="598" 
d="M463 1829l-223 -291h-265l-229 291h231l129 -178l134 178h223z" />
    <glyph glyph-name="Dieresis" unicode="&#xf6cb;" horiz-adv-x="598" 
d="M461 1802v-231h-271v231h271zM23 1802v-231h-271v231h271z" />
    <glyph glyph-name="Grave" unicode="&#xf6ce;" horiz-adv-x="598" 
d="M59 1829l193 -291h-205l-309 291h321z" />
    <glyph glyph-name="onefitted" unicode="&#xf6dc;" horiz-adv-x="811" 
d="M645 1423v-1423h-305v924h-336v213q115 0 189 25q44 15 81 38q39 24 64 55q53 63 70 168h237z" />
    <glyph glyph-name="fi" unicode="&#xfb01;" 
d="M668 1446v-211q-94 5 -113 4q-65 0 -90 -27q-16 -18 -21 -82v-81h197v-197h-195v-852h-288v852h-164v197h164v55q1 50 2 70t7 58t20 66t38 54q55 63 136 82.5t192 19.5q66 0 115 -8zM1081 1446v-244h-286v244h286zM1081 1049v-1049h-286v1049h286z" />
    <glyph glyph-name="fl" unicode="&#xfb02;" 
d="M668 1446v-211q-94 5 -113 4q-65 0 -90 -27q-16 -18 -21 -82v-81h197v-197h-195v-852h-288v852h-164v197h164v55q1 50 2 70t7 58t20 66t38 54q55 63 136 82.5t192 19.5q66 0 115 -8zM1081 1446v-1446h-286v1446h286z" />
    <glyph glyph-name="Circumflex" horiz-adv-x="598" 
d="M467 1538h-234l-129 174l-131 -174h-221l225 291h265z" />
    <glyph glyph-name="Tilde" horiz-adv-x="598" 
d="M-135 1552h-125q6 50 24 93q7 21 20 42.5t37.5 50.5t65 47.5t90.5 18.5q68 0 154 -37q41 -18 56 -24t35.5 -11.5t37.5 -5.5q26 0 45.5 9t30.5 26.5t14.5 25.5t7.5 23h125q-5 -60 -32 -118q-65 -127 -193 -127q-64 0 -195 47l-7 2q-8 3 -19.5 7t-24 8t-27 6.5t-24.5 2.5
q-15 0 -27.5 -4t-22 -11t-16.5 -14.5t-12.5 -17t-8.5 -16t-6 -14.5t-3 -9z" />
    </font>
</defs>
</svg>
